<svg width="24" height="24" viewBox="0 0 24 24" fill="none" xmlns="http://www.w3.org/2000/svg">
<path d="M20 12L20.7071 12.7071C21.0976 12.3166 21.0976 11.6834 20.7071 11.2929L20 12ZM10 11C9.44772 11 9 11.4477 9 12C9 12.5523 9.44772 13 10 13V11ZM15.2929 15.2929C14.9024 15.6834 14.9024 16.3166 15.2929 16.7071C15.6834 17.0976 16.3166 17.0976 16.7071 16.7071L15.2929 15.2929ZM16.7071 7.29289C16.3166 6.90237 15.6834 6.90237 15.2929 7.29289C14.9024 7.68342 14.9024 8.31658 15.2929 8.70711L16.7071 7.29289ZM5 4C5 3.44772 4.55228 3 4 3C3.44772 3 3 3.44772 3 4H5ZM3 20C3 20.5523 3.44772 21 4 21C4.55228 21 5 20.5523 5 20H3ZM20 11H10V13H20V11ZM19.2929 11.2929L15.2929 15.2929L16.7071 16.7071L20.7071 12.7071L19.2929 11.2929ZM20.7071 11.2929L16.7071 7.29289L15.2929 8.70711L19.2929 12.7071L20.7071 11.2929ZM3 4V20H5V4H3Z" fill="#12141D"/>
</svg>
