<svg width="24" height="24" viewBox="0 0 24 24" fill="none" xmlns="http://www.w3.org/2000/svg">
<path d="M4 12L3.29289 12.7071C2.90237 12.3166 2.90237 11.6834 3.29289 11.2929L4 12ZM14 11C14.5523 11 15 11.4477 15 12C15 12.5523 14.5523 13 14 13V11ZM8.70711 15.2929C9.09763 15.6834 9.09763 16.3166 8.70711 16.7071C8.31658 17.0976 7.68342 17.0976 7.29289 16.7071L8.70711 15.2929ZM7.29289 7.29289C7.68342 6.90237 8.31658 6.90237 8.70711 7.29289C9.09763 7.68342 9.09763 8.31658 8.70711 8.70711L7.29289 7.29289ZM19 4C19 3.44772 19.4477 3 20 3C20.5523 3 21 3.44772 21 4H19ZM21 20C21 20.5523 20.5523 21 20 21C19.4477 21 19 20.5523 19 20H21ZM4 11H14V13H4V11ZM4.70711 11.2929L8.70711 15.2929L7.29289 16.7071L3.29289 12.7071L4.70711 11.2929ZM3.29289 11.2929L7.29289 7.29289L8.70711 8.70711L4.70711 12.7071L3.29289 11.2929ZM21 4V20H19V4H21Z" fill="#12141D"/>
</svg>
