<svg width="24" height="24" viewBox="0 0 24 24" fill="none" xmlns="http://www.w3.org/2000/svg">
<path d="M10 5L10.4275 5.90403C10.7771 5.73873 11 5.38669 11 5H10ZM12 3V2V3ZM14 5H13C13 5.38669 13.2229 5.73873 13.5725 5.90403L14 5ZM18 11H19C19 10.9844 18.9996 10.9687 18.9989 10.9531L18 11ZM18 14H17C17 14.0402 17.0024 14.0803 17.0072 14.1202L18 14ZM20 17V18C20.4542 18 20.8513 17.694 20.967 17.2548C21.0827 16.8156 20.8879 16.3536 20.4928 16.1298L20 17ZM4 17L3.50725 16.1298C3.11205 16.3536 2.91729 16.8156 3.033 17.2548C3.14872 17.694 3.54584 18 4 18V17ZM6 14L6.99275 14.1202C6.99758 14.0803 7 14.0402 7 14H6ZM6 11L5.0011 10.9531C5.00037 10.9687 5 10.9844 5 11H6ZM10 17C10 16.4477 9.55228 16 9 16C8.44772 16 8 16.4477 8 17H10ZM12 21V22V21ZM16 17C16 16.4477 15.5523 16 15 16C14.4477 16 14 16.4477 14 17H16ZM11 5C11 4.73478 11.1054 4.48043 11.2929 4.29289L9.87868 2.87868C9.31607 3.44129 9 4.20435 9 5H11ZM11.2929 4.29289C11.4804 4.10536 11.7348 4 12 4V2C11.2044 2 10.4413 2.31607 9.87868 2.87868L11.2929 4.29289ZM12 4C12.2652 4 12.5196 4.10536 12.7071 4.29289L14.1213 2.87868C13.5587 2.31607 12.7956 2 12 2V4ZM12.7071 4.29289C12.8946 4.48043 13 4.73478 13 5H15C15 4.20435 14.6839 3.44129 14.1213 2.87868L12.7071 4.29289ZM13.5725 5.90403C14.5569 6.36948 15.396 7.09402 16 8L17.6641 6.8906C16.8588 5.68263 15.7399 4.71657 14.4275 4.09597L13.5725 5.90403ZM16 8C16.604 8.90598 16.95 9.95923 17.0011 11.0469L18.9989 10.9531C18.9308 9.50291 18.4694 8.09857 17.6641 6.8906L16 8ZM17 11V14H19V11H17ZM17.0072 14.1202C17.1013 14.8973 17.3765 15.6415 17.8108 16.2928L19.4749 15.1834C19.2143 14.7926 19.0492 14.3461 18.9928 13.8798L17.0072 14.1202ZM17.8108 16.2928C18.245 16.9442 18.8261 17.4844 19.5072 17.8702L20.4928 16.1298C20.084 15.8984 19.7354 15.5742 19.4749 15.1834L17.8108 16.2928ZM20 16H4V18H20V16ZM4.49275 17.8702C5.17393 17.4844 5.75502 16.9442 6.18924 16.2928L4.52514 15.1834C4.2646 15.5742 3.91595 15.8984 3.50725 16.1298L4.49275 17.8702ZM6.18924 16.2928C6.62346 15.6415 6.89868 14.8973 6.99275 14.1202L5.00725 13.8798C4.95081 14.3461 4.78567 14.7926 4.52514 15.1834L6.18924 16.2928ZM7 14V11H5V14H7ZM6.9989 11.0469C7.04995 9.95923 7.39602 8.90598 8 8L6.3359 6.8906C5.53059 8.09857 5.06917 9.50291 5.0011 10.9531L6.9989 11.0469ZM8 8C8.60398 7.09402 9.44312 6.36948 10.4275 5.90403L9.57253 4.09597C8.26006 4.71657 7.14121 5.68263 6.3359 6.8906L8 8ZM8 17V18H10V17H8ZM8 18C8 19.0609 8.42143 20.0783 9.17157 20.8284L10.5858 19.4142C10.2107 19.0391 10 18.5304 10 18H8ZM9.17157 20.8284C9.92172 21.5786 10.9391 22 12 22V20C11.4696 20 10.9609 19.7893 10.5858 19.4142L9.17157 20.8284ZM12 22C13.0609 22 14.0783 21.5786 14.8284 20.8284L13.4142 19.4142C13.0391 19.7893 12.5304 20 12 20V22ZM14.8284 20.8284C15.5786 20.0783 16 19.0609 16 18H14C14 18.5304 13.7893 19.0391 13.4142 19.4142L14.8284 20.8284ZM16 18V17H14V18H16Z" fill="#12141D"/>
</svg>
