<svg width="24" height="24" viewBox="0 0 24 24" fill="none" xmlns="http://www.w3.org/2000/svg">
<path d="M17 11L16.0194 11.1961C16.1129 11.6635 16.5233 12 17 12V11ZM12 17H11C11 17.5523 11.4477 18 12 18V17ZM12 7V6C11.4477 6 11 6.44772 11 7H12ZM10 8C10 7.44772 9.55228 7 9 7C8.44772 7 8 7.44772 8 8H10ZM8 17C8 17.5523 8.44772 18 9 18C9.55228 18 10 17.5523 10 17H8ZM5 17C5 17.5523 5.44772 18 6 18C6.55228 18 7 17.5523 7 17H5ZM7 10C7 9.44772 6.55228 9 6 9C5.44772 9 5 9.44772 5 10H7ZM2 16C2 16.5523 2.44772 17 3 17C3.55228 17 4 16.5523 4 16H2ZM4 14C4 13.4477 3.55228 13 3 13C2.44772 13 2 13.4477 2 14H4ZM17 12H18V10H17V12ZM18 12C18.4008 12 18.9163 12.1963 19.3384 12.5868C19.7496 12.9672 20 13.4639 20 14H22C22 12.8101 21.4404 11.8068 20.6966 11.1187C19.9637 10.4407 18.9792 10 18 10V12ZM20 14C20 15.0715 18.9815 16 18 16V18C20.0185 18 22 16.2425 22 14H20ZM18 16H12V18H18V16ZM13 17V7H11V17H13ZM12 8C13.3327 8 14.2062 8.33062 14.7916 8.82589C15.3812 9.32483 15.7987 10.0927 16.0194 11.1961L17.9806 10.8039C17.7013 9.40732 17.1188 8.17517 16.0834 7.29911C15.0438 6.41938 13.6673 6 12 6V8ZM8 8V17H10V8H8ZM7 17V10H5V17H7ZM4 16V14H2V16H4Z" fill="#12141D"/>
</svg>
