<svg width="24" height="24" viewBox="0 0 24 24" fill="none" xmlns="http://www.w3.org/2000/svg">
<path d="M7 10V9C6.44772 9 6 9.44772 6 10H7ZM7 14H6C6 14.5523 6.44772 15 7 15V14ZM10 14H11C11 13.4477 10.5523 13 10 13V14ZM10 21H9C9 21.5523 9.44772 22 10 22V21ZM14 21V22C14.5523 22 15 21.5523 15 21H14ZM14 14V13C13.4477 13 13 13.4477 13 14H14ZM17 14V15C17.4589 15 17.8589 14.6877 17.9701 14.2425L17 14ZM18 10L18.9701 10.2425C19.0448 9.94379 18.9777 9.6273 18.7882 9.38459C18.5987 9.14187 18.3079 9 18 9V10ZM14 10H13C13 10.5523 13.4477 11 14 11V10ZM15 7V8V7ZM18 7V8C18.5523 8 19 7.55228 19 7H18ZM18 3H19C19 2.44772 18.5523 2 18 2V3ZM10 8H9H10ZM10 10V11C10.5523 11 11 10.5523 11 10H10ZM6 10V14H8V10H6ZM7 15H10V13H7V15ZM9 14V21H11V14H9ZM10 22H14V20H10V22ZM15 21V14H13V21H15ZM14 15H17V13H14V15ZM17.9701 14.2425L18.9701 10.2425L17.0299 9.75746L16.0299 13.7575L17.9701 14.2425ZM18 9H14V11H18V9ZM15 10V8H13V10H15ZM15 8L13.5858 6.58579C13.2107 6.96086 13 7.46957 13 8H15ZM15 8V6C14.4696 6 13.9609 6.21071 13.5858 6.58579L15 8ZM15 8H18V6H15V8ZM19 7V3H17V7H19ZM18 2H15V4H18V2ZM15 2C13.4087 2 11.8826 2.63214 10.7574 3.75736L12.1716 5.17157C12.9217 4.42143 13.9391 4 15 4V2ZM10.7574 3.75736C9.63214 4.88258 9 6.4087 9 8H11C11 6.93913 11.4214 5.92172 12.1716 5.17157L10.7574 3.75736ZM9 8V10H11V8H9ZM10 9H7V11H10V9Z" fill="#12141D"/>
</svg>
