<svg width="24" height="24" viewBox="0 0 24 24" fill="none" xmlns="http://www.w3.org/2000/svg">
<path d="M8 5H16V3H8V5ZM16 5C17.6569 5 19 6.34315 19 8H21C21 5.23858 18.7614 3 16 3V5ZM19 8V16H21V8H19ZM19 16C19 17.6569 17.6569 19 16 19V21C18.7614 21 21 18.7614 21 16H19ZM16 19H8V21H16V19ZM8 19C6.34315 19 5 17.6569 5 16H3C3 18.7614 5.23858 21 8 21V19ZM5 16V8H3V16H5ZM5 8C5 6.34315 6.34315 5 8 5V3C5.23858 3 3 5.23858 3 8H5ZM14 12C14 13.1046 13.1046 14 12 14V16C14.2091 16 16 14.2091 16 12H14ZM12 14C10.8954 14 10 13.1046 10 12H8C8 14.2091 9.79086 16 12 16V14ZM10 12C10 10.8954 10.8954 10 12 10V8C9.79086 8 8 9.79086 8 12H10ZM12 10C13.1046 10 14 10.8954 14 12H16C16 9.79086 14.2091 8 12 8V10Z" fill="#12141D"/>
</svg>
