<svg width="24" height="24" viewBox="0 0 24 24" fill="none" xmlns="http://www.w3.org/2000/svg">
<path d="M10 9L10.5145 8.14251C10.2056 7.95715 9.82081 7.95229 9.5073 8.1298C9.19379 8.30731 9 8.63973 9 9H10ZM15 12L15.5145 12.8575C15.8157 12.6768 16 12.3513 16 12C16 11.6487 15.8157 11.3232 15.5145 11.1425L15 12ZM10 15H9C9 15.3603 9.19379 15.6927 9.5073 15.8702C9.82081 16.0477 10.2056 16.0429 10.5145 15.8575L10 15ZM7 6H17V4H7V6ZM17 6C18.6569 6 20 7.34315 20 9H22C22 6.23858 19.7614 4 17 4V6ZM20 9V15H22V9H20ZM20 15C20 16.6569 18.6569 18 17 18V20C19.7614 20 22 17.7614 22 15H20ZM17 18H7V20H17V18ZM7 18C5.34315 18 4 16.6569 4 15H2C2 17.7614 4.23858 20 7 20V18ZM4 15V9H2V15H4ZM4 9C4 7.34315 5.34315 6 7 6V4C4.23858 4 2 6.23858 2 9H4ZM9.4855 9.85749L14.4855 12.8575L15.5145 11.1425L10.5145 8.14251L9.4855 9.85749ZM14.4855 11.1425L9.4855 14.1425L10.5145 15.8575L15.5145 12.8575L14.4855 11.1425ZM11 15V9H9V15H11Z" fill="#12141D"/>
</svg>
