<svg width="24" height="24" viewBox="0 0 24 24" fill="none" xmlns="http://www.w3.org/2000/svg">
<path d="M7.49236 11.1113C7.01653 11.3917 6.85807 12.0047 7.13843 12.4805C7.41879 12.9564 8.03181 13.1148 8.50764 12.8345L7.49236 11.1113ZM14.9 13.2999C15.3418 13.6313 15.9686 13.5417 16.3 13.0999C16.6314 12.6581 16.5418 12.0313 16.1 11.6999L14.9 13.2999ZM8.4453 14.1681C7.98577 14.4745 7.8616 15.0953 8.16795 15.5549C8.4743 16.0144 9.09517 16.1386 9.5547 15.8322L8.4453 14.1681ZM13.1679 16.0549C13.4743 16.5144 14.0952 16.6386 14.5547 16.3322C15.0142 16.0259 15.1384 15.405 14.8321 14.9455L13.1679 16.0549ZM6.55279 8.10577C6.05881 8.35276 5.85858 8.95343 6.10557 9.44741C6.35256 9.94139 6.95324 10.1416 7.44721 9.89462L6.55279 8.10577ZM16.47 10.3482C16.9383 10.6409 17.5553 10.4985 17.848 10.0302C18.1407 9.56186 17.9983 8.94491 17.53 8.6522L16.47 10.3482ZM20 12C20 16.4183 16.4183 20 12 20V22C17.5228 22 22 17.5228 22 12H20ZM12 20C7.58172 20 4 16.4183 4 12H2C2 17.5228 6.47715 22 12 22V20ZM4 12C4 7.58172 7.58172 4 12 4V2C6.47715 2 2 6.47715 2 12H4ZM12 4C16.4183 4 20 7.58172 20 12H22C22 6.47715 17.5228 2 12 2V4ZM8.50764 12.8345C10.6037 11.5994 13.1675 12.0005 14.9 13.2999L16.1 11.6999C13.8325 9.9993 10.3963 9.40035 7.49236 11.1113L8.50764 12.8345ZM9.5547 15.8322C10.108 15.4634 10.8864 15.2615 11.621 15.3104C12.3576 15.3596 12.8932 15.6427 13.1679 16.0549L14.8321 14.9455C14.1068 13.8576 12.8924 13.3908 11.754 13.3149C10.6136 13.2389 9.39202 13.537 8.4453 14.1681L9.5547 15.8322ZM7.44721 9.89462C9.25765 8.98941 12.8651 8.09515 16.47 10.3482L17.53 8.6522C13.1349 5.90525 8.74235 7.01099 6.55279 8.10577L7.44721 9.89462Z" fill="#12141D"/>
</svg>
