<svg width="24" height="24" viewBox="0 0 24 24" fill="none" xmlns="http://www.w3.org/2000/svg">
<path d="M17 3C17 2.44772 16.5523 2 16 2C15.4477 2 15 2.44772 15 3H17ZM15 7C15 7.55228 15.4477 8 16 8C16.5523 8 17 7.55228 17 7H15ZM9 3C9 2.44772 8.55228 2 8 2C7.44772 2 7 2.44772 7 3H9ZM7 7C7 7.55228 7.44772 8 8 8C8.55228 8 9 7.55228 9 7H7ZM4 10C3.44772 10 3 10.4477 3 11C3 11.5523 3.44772 12 4 12V10ZM20 12C20.5523 12 21 11.5523 21 11C21 10.4477 20.5523 10 20 10V12ZM6 6H18V4H6V6ZM18 6C18.5523 6 19 6.44772 19 7H21C21 5.34315 19.6569 4 18 4V6ZM19 7V19H21V7H19ZM19 19C19 19.5523 18.5523 20 18 20V22C19.6569 22 21 20.6569 21 19H19ZM18 20H6V22H18V20ZM6 20C5.44772 20 5 19.5523 5 19H3C3 20.6569 4.34315 22 6 22V20ZM5 19V7H3V19H5ZM5 7C5 6.44772 5.44772 6 6 6V4C4.34315 4 3 5.34315 3 7H5ZM15 3V7H17V3H15ZM7 3V7H9V3H7ZM4 12H20V10H4V12Z" fill="#12141D"/>
</svg>
