<svg width="24" height="24" viewBox="0 0 24 24" fill="none" xmlns="http://www.w3.org/2000/svg">
<path d="M5 7V6V7ZM7 7V8V7ZM10 4V5V4ZM12 5C12.5523 5 13 4.55228 13 4C13 3.44772 12.5523 3 12 3V5ZM22 11C22 10.4477 21.5523 10 21 10C20.4477 10 20 10.4477 20 11H22ZM3 18H2H3ZM15 5C14.4477 5 14 5.44772 14 6C14 6.55228 14.4477 7 15 7V5ZM21 7C21.5523 7 22 6.55228 22 6C22 5.44772 21.5523 5 21 5V7ZM19 3C19 2.44772 18.5523 2 18 2C17.4477 2 17 2.44772 17 3H19ZM17 9C17 9.55228 17.4477 10 18 10C18.5523 10 19 9.55228 19 9H17ZM14 13C14 14.1046 13.1046 15 12 15V17C14.2091 17 16 15.2091 16 13H14ZM12 15C10.8954 15 10 14.1046 10 13H8C8 15.2091 9.79086 17 12 17V15ZM10 13C10 11.8954 10.8954 11 12 11V9C9.79086 9 8 10.7909 8 13H10ZM12 11C13.1046 11 14 11.8954 14 13H16C16 10.7909 14.2091 9 12 9V11ZM5 8H7V6H5V8ZM7 8C7.79565 8 8.55871 7.68393 9.12132 7.12132L7.70711 5.70711C7.51957 5.89464 7.26522 6 7 6V8ZM9.12132 7.12132C9.68393 6.55871 10 5.79565 10 5H8C8 5.26522 7.89464 5.51957 7.70711 5.70711L9.12132 7.12132ZM10 5V5L8.58579 3.58579C8.21071 3.96086 8 4.46957 8 5H10ZM10 5V5V3C9.46957 3 8.96086 3.21071 8.58579 3.58579L10 5ZM10 5H12V3H10V5ZM20 11V18H22V11H20ZM20 18C20 18.2652 19.8946 18.5196 19.7071 18.7071L21.1213 20.1213C21.6839 19.5587 22 18.7957 22 18H20ZM19.7071 18.7071C19.5196 18.8946 19.2652 19 19 19V21C19.7957 21 20.5587 20.6839 21.1213 20.1213L19.7071 18.7071ZM19 19H5V21H19V19ZM5 19C4.73478 19 4.48043 18.8946 4.29289 18.7071L2.87868 20.1213C3.44129 20.6839 4.20435 21 5 21V19ZM4.29289 18.7071C4.10536 18.5196 4 18.2652 4 18H2C2 18.7956 2.31607 19.5587 2.87868 20.1213L4.29289 18.7071ZM4 18V9H2V18H4ZM4 9C4 8.73478 4.10536 8.48043 4.29289 8.29289L2.87868 6.87868C2.31607 7.44129 2 8.20435 2 9H4ZM4.29289 8.29289C4.48043 8.10536 4.73478 8 5 8V6C4.20435 6 3.44129 6.31607 2.87868 6.87868L4.29289 8.29289ZM15 7H21V5H15V7ZM17 3V9H19V3H17Z" fill="#12141D"/>
</svg>
