<svg width="24" height="24" viewBox="0 0 24 24" fill="none" xmlns="http://www.w3.org/2000/svg">
<path d="M5.70711 11.2929C5.31658 10.9024 4.68342 10.9024 4.29289 11.2929C3.90237 11.6834 3.90237 12.3166 4.29289 12.7071L5.70711 11.2929ZM10 17L9.29289 17.7071C9.68342 18.0976 10.3166 18.0976 10.7071 17.7071L10 17ZM20.7071 7.70711C21.0976 7.31658 21.0976 6.68342 20.7071 6.29289C20.3166 5.90237 19.6834 5.90237 19.2929 6.29289L20.7071 7.70711ZM4.29289 12.7071L9.29289 17.7071L10.7071 16.2929L5.70711 11.2929L4.29289 12.7071ZM10.7071 17.7071L20.7071 7.70711L19.2929 6.29289L9.29289 16.2929L10.7071 17.7071Z" fill="#12141D"/>
</svg>
