<svg width="24" height="24" viewBox="0 0 24 24" fill="none" xmlns="http://www.w3.org/2000/svg">
<path d="M13 2C13 1.44772 12.5523 1 12 1C11.4477 1 11 1.44772 11 2H13ZM11 22C11 22.5523 11.4477 23 12 23C12.5523 23 13 22.5523 13 22H11ZM22 13C22.5523 13 23 12.5523 23 12C23 11.4477 22.5523 11 22 11V13ZM2 11C1.44772 11 1 11.4477 1 12C1 12.5523 1.44772 13 2 13V11ZM14 12C14 13.1046 13.1046 14 12 14V16C14.2091 16 16 14.2091 16 12H14ZM12 14C10.8954 14 10 13.1046 10 12H8C8 14.2091 9.79086 16 12 16V14ZM10 12C10 10.8954 10.8954 10 12 10V8C9.79086 8 8 9.79086 8 12H10ZM12 10C13.1046 10 14 10.8954 14 12H16C16 9.79086 14.2091 8 12 8V10ZM19 12C19 15.866 15.866 19 12 19V21C16.9706 21 21 16.9706 21 12H19ZM12 19C8.13401 19 5 15.866 5 12H3C3 16.9706 7.02944 21 12 21V19ZM5 12C5 8.13401 8.13401 5 12 5V3C7.02944 3 3 7.02944 3 12H5ZM12 5C15.866 5 19 8.13401 19 12H21C21 7.02944 16.9706 3 12 3V5ZM11 2V4H13V2H11ZM11 20V22H13V20H11ZM20 13H22V11H20V13ZM2 13H4V11H2V13Z" fill="#12141D"/>
</svg>
