<svg width="24" height="24" viewBox="0 0 24 24" fill="none" xmlns="http://www.w3.org/2000/svg">
<path d="M9 8C9.55228 8 10 7.55228 10 7C10 6.44772 9.55228 6 9 6V8ZM6 7V6V7ZM4 9H3H4ZM4 18H3H4ZM18 15C18 14.4477 17.5523 14 17 14C16.4477 14 16 14.4477 16 15H18ZM9 15H8C8 15.5523 8.44772 16 9 16V15ZM12 15V16C12.2652 16 12.5196 15.8946 12.7071 15.7071L12 15ZM20.5 6.49998L19.7929 5.79288L20.5 6.49998ZM21.1213 4.99998H22.1213H21.1213ZM19 2.87866V1.87866V2.87866ZM17.5 3.49998L16.7929 2.79288V2.79288L17.5 3.49998ZM9 12L8.29289 11.2929C8.10536 11.4804 8 11.7348 8 12H9ZM16.7071 4.29289C16.3166 3.90237 15.6834 3.90237 15.2929 4.29289C14.9024 4.68342 14.9024 5.31658 15.2929 5.70711L16.7071 4.29289ZM18.2929 8.70711C18.6834 9.09763 19.3166 9.09763 19.7071 8.70711C20.0976 8.31658 20.0976 7.68342 19.7071 7.29289L18.2929 8.70711ZM9 6H6V8H9V6ZM6 6C5.20435 6 4.44129 6.31607 3.87868 6.87868L5.29289 8.29289C5.48043 8.10536 5.73478 8 6 8V6ZM3.87868 6.87868C3.31607 7.44129 3 8.20435 3 9H5C5 8.73478 5.10536 8.48043 5.29289 8.29289L3.87868 6.87868ZM3 9V18H5V9H3ZM3 18C3 18.7956 3.31607 19.5587 3.87868 20.1213L5.29289 18.7071C5.10536 18.5196 5 18.2652 5 18H3ZM3.87868 20.1213C4.44129 20.6839 5.20435 21 6 21V19C5.73478 19 5.48043 18.8946 5.29289 18.7071L3.87868 20.1213ZM6 21H15V19H6V21ZM15 21C15.7957 21 16.5587 20.6839 17.1213 20.1213L15.7071 18.7071C15.5196 18.8946 15.2652 19 15 19V21ZM17.1213 20.1213C17.6839 19.5587 18 18.7957 18 18H16C16 18.2652 15.8946 18.5196 15.7071 18.7071L17.1213 20.1213ZM18 18V15H16V18H18ZM9 16H12V14H9V16ZM12.7071 15.7071L21.2071 7.20709L19.7929 5.79288L11.2929 14.2929L12.7071 15.7071ZM21.2071 7.20709C21.7925 6.62173 22.1213 5.82781 22.1213 4.99998H20.1213C20.1213 5.29737 20.0032 5.58259 19.7929 5.79288L21.2071 7.20709ZM22.1213 4.99998C22.1213 4.17216 21.7925 3.37824 21.2071 2.79288L19.7929 4.20709C20.0032 4.41738 20.1213 4.70259 20.1213 4.99998H22.1213ZM21.2071 2.79288C20.6217 2.20751 19.8278 1.87866 19 1.87866V3.87866C19.2974 3.87866 19.5826 3.9968 19.7929 4.20709L21.2071 2.79288ZM19 1.87866C18.1722 1.87866 17.3783 2.20751 16.7929 2.79288L18.2071 4.20709C18.4174 3.9968 18.7026 3.87866 19 3.87866V1.87866ZM16.7929 2.79288L8.29289 11.2929L9.70711 12.7071L18.2071 4.20709L16.7929 2.79288ZM8 12V15H10V12H8ZM15.2929 5.70711L18.2929 8.70711L19.7071 7.29289L16.7071 4.29289L15.2929 5.70711Z" fill="#12141D"/>
</svg>
