<svg width="48" height="48" viewBox="0 0 48 48" fill="none" xmlns="http://www.w3.org/2000/svg">
<path d="M18 15C18.5523 15 19 14.5523 19 14C19 13.4477 18.5523 13 18 13V15ZM12 14V13V14ZM8 18H7H8ZM8 36H7H8ZM35 30C35 29.4477 34.5523 29 34 29C33.4477 29 33 29.4477 33 30H35ZM18 30H17C17 30.5522 17.4477 31 18 31V30ZM24 30V31C24.2652 31 24.5196 30.8946 24.7071 30.7071L24 30ZM41 13L40.2929 12.2929L41 13ZM42.2426 9.99996H43.2426H42.2426ZM38 5.75732V4.75732V5.75732ZM35 6.99996L34.2929 6.29286L35 6.99996ZM18 24L17.2929 23.2929C17.1054 23.4804 17 23.7347 17 24H18ZM32.7071 9.29289C32.3166 8.90237 31.6834 8.90237 31.2929 9.29289C30.9024 9.68342 30.9024 10.3166 31.2929 10.7071L32.7071 9.29289ZM37.2929 16.7071C37.6834 17.0976 38.3166 17.0976 38.7071 16.7071C39.0976 16.3166 39.0976 15.6834 38.7071 15.2929L37.2929 16.7071ZM18 13H12V15H18V13ZM12 13C10.6739 13 9.40215 13.5268 8.46447 14.4645L9.87868 15.8787C10.4413 15.3161 11.2044 15 12 15V13ZM8.46447 14.4645C7.52678 15.4021 7 16.6739 7 18H9C9 17.2044 9.31607 16.4413 9.87868 15.8787L8.46447 14.4645ZM7 18V36H9V18H7ZM7 36C7 37.3261 7.52678 38.5979 8.46447 39.5355L9.87868 38.1213C9.31607 37.5587 9 36.7956 9 36H7ZM8.46447 39.5355C9.40215 40.4732 10.6739 41 12 41V39C11.2044 39 10.4413 38.6839 9.87868 38.1213L8.46447 39.5355ZM12 41H30V39H12V41ZM30 41C31.3261 41 32.5979 40.4732 33.5355 39.5355L32.1213 38.1213C31.5587 38.6839 30.7956 39 30 39V41ZM33.5355 39.5355C34.4732 38.5979 35 37.3261 35 36H33C33 36.7956 32.6839 37.5587 32.1213 38.1213L33.5355 39.5355ZM35 36V30H33V36H35ZM18 31H24V29H18V31ZM24.7071 30.7071L41.7071 13.7071L40.2929 12.2929L23.2929 29.2929L24.7071 30.7071ZM41.7071 13.7071C42.6903 12.7239 43.2426 11.3904 43.2426 9.99996H41.2426C41.2426 10.86 40.901 11.6847 40.2929 12.2929L41.7071 13.7071ZM43.2426 9.99996C43.2426 8.60953 42.6903 7.27604 41.7071 6.29286L40.2929 7.70707C40.901 8.31518 41.2426 9.13996 41.2426 9.99996H43.2426ZM41.7071 6.29286C40.7239 5.30967 39.3904 4.75732 38 4.75732V6.75732C38.86 6.75732 39.6848 7.09896 40.2929 7.70707L41.7071 6.29286ZM38 4.75732C36.6096 4.75732 35.2761 5.30967 34.2929 6.29286L35.7071 7.70707C36.3152 7.09896 37.14 6.75732 38 6.75732V4.75732ZM34.2929 6.29286L17.2929 23.2929L18.7071 24.7071L35.7071 7.70707L34.2929 6.29286ZM17 24V30H19V24H17ZM31.2929 10.7071L37.2929 16.7071L38.7071 15.2929L32.7071 9.29289L31.2929 10.7071Z" fill="#12141D"/>
</svg>
