<svg width="24" height="24" viewBox="0 0 24 24" fill="none" xmlns="http://www.w3.org/2000/svg">
<path d="M12 17.75L12.4662 16.8653C12.1747 16.7117 11.8263 16.7115 11.5346 16.8648L12 17.75ZM5.828 20.995L4.8424 20.8259C4.77804 21.2011 4.93226 21.5802 5.24022 21.804C5.54817 22.0277 5.95644 22.0572 6.29337 21.8801L5.828 20.995ZM7.007 14.122L7.99261 14.291C8.0483 13.9664 7.94055 13.6351 7.70452 13.4054L7.007 14.122ZM2.007 9.25495L1.86357 8.26529C1.48668 8.31992 1.17352 8.58388 1.0559 8.94609C0.938271 9.30831 1.0366 9.70589 1.30949 9.97153L2.007 9.25495ZM8.907 8.25495L9.05043 9.24461C9.37629 9.19739 9.65802 8.99278 9.80374 8.69751L8.907 8.25495ZM11.993 2.00195L12.8897 1.55939C12.7213 1.21805 12.3736 1.00195 11.993 1.00195C11.6124 1.00195 11.2647 1.21805 11.0963 1.55939L11.993 2.00195ZM15.079 8.25495L14.1823 8.69751C14.328 8.99278 14.6097 9.19739 14.9356 9.24461L15.079 8.25495ZM21.979 9.25495L22.6765 9.97153C22.9494 9.70589 23.0477 9.30831 22.9301 8.94609C22.8125 8.58388 22.4993 8.31992 22.1224 8.26529L21.979 9.25495ZM16.979 14.122L16.2815 13.4054C16.0455 13.6351 15.9377 13.9664 15.9934 14.291L16.979 14.122ZM18.158 20.995L17.6918 21.8796C18.0287 22.0572 18.4372 22.0279 18.7454 21.8042C19.0536 21.5805 19.208 21.2012 19.1436 20.8259L18.158 20.995ZM11.5346 16.8648L5.36264 20.1098L6.29337 21.8801L12.4654 18.6351L11.5346 16.8648ZM6.81361 21.164L7.99261 14.291L6.0214 13.9529L4.8424 20.8259L6.81361 21.164ZM7.70452 13.4054L2.70452 8.53838L1.30949 9.97153L6.30949 14.8385L7.70452 13.4054ZM2.15043 10.2446L9.05043 9.24461L8.76357 7.26529L1.86357 8.26529L2.15043 10.2446ZM9.80374 8.69751L12.8897 2.44451L11.0963 1.55939L8.01026 7.81239L9.80374 8.69751ZM11.0963 2.44451L14.1823 8.69751L15.9757 7.81239L12.8897 1.55939L11.0963 2.44451ZM14.9356 9.24461L21.8356 10.2446L22.1224 8.26529L15.2224 7.26529L14.9356 9.24461ZM21.2815 8.53838L16.2815 13.4054L17.6765 14.8385L22.6765 9.97153L21.2815 8.53838ZM15.9934 14.291L17.1724 21.164L19.1436 20.8259L17.9646 13.9529L15.9934 14.291ZM18.6242 20.1103L12.4662 16.8653L11.5338 18.6346L17.6918 21.8796L18.6242 20.1103Z" fill="#12141D"/>
</svg>
