<svg width="24" height="24" viewBox="0 0 24 24" fill="none" xmlns="http://www.w3.org/2000/svg">
<path d="M14 3L14.7071 2.29289C14.5196 2.10536 14.2652 2 14 2V3ZM19 8H20C20 7.73478 19.8946 7.48043 19.7071 7.29289L19 8ZM5 19H4H5ZM7 3V2V3ZM9 6C8.44772 6 8 6.44772 8 7C8 7.55228 8.44772 8 9 8V6ZM10 8C10.5523 8 11 7.55228 11 7C11 6.44772 10.5523 6 10 6V8ZM9 12C8.44772 12 8 12.4477 8 13C8 13.5523 8.44772 14 9 14V12ZM15 14C15.5523 14 16 13.5523 16 13C16 12.4477 15.5523 12 15 12V14ZM13 16C12.4477 16 12 16.4477 12 17C12 17.5523 12.4477 18 13 18V16ZM15 18C15.5523 18 16 17.5523 16 17C16 16.4477 15.5523 16 15 16V18ZM13 3V7H15V3H13ZM13 7C13 7.53043 13.2107 8.03914 13.5858 8.41421L15 7V7H13ZM13.5858 8.41421C13.9609 8.78929 14.4696 9 15 9V7V7L13.5858 8.41421ZM15 9H19V7H15V9ZM17 20H7V22H17V20ZM7 20C6.73478 20 6.48043 19.8946 6.29289 19.7071L4.87868 21.1213C5.44129 21.6839 6.20435 22 7 22V20ZM6.29289 19.7071C6.10536 19.5196 6 19.2652 6 19H4C4 19.7957 4.31607 20.5587 4.87868 21.1213L6.29289 19.7071ZM6 19V5H4V19H6ZM6 5C6 4.73478 6.10536 4.48043 6.29289 4.29289L4.87868 2.87868C4.31607 3.44129 4 4.20435 4 5H6ZM6.29289 4.29289C6.48043 4.10536 6.73478 4 7 4V2C6.20435 2 5.44129 2.31607 4.87868 2.87868L6.29289 4.29289ZM7 4H14V2H7V4ZM13.2929 3.70711L18.2929 8.70711L19.7071 7.29289L14.7071 2.29289L13.2929 3.70711ZM18 8V19H20V8H18ZM18 19C18 19.2652 17.8946 19.5196 17.7071 19.7071L19.1213 21.1213C19.6839 20.5587 20 19.7957 20 19H18ZM17.7071 19.7071C17.5196 19.8946 17.2652 20 17 20V22C17.7957 22 18.5587 21.6839 19.1213 21.1213L17.7071 19.7071ZM9 8H10V6H9V8ZM9 14H15V12H9V14ZM13 18H15V16H13V18Z" fill="#12141D"/>
</svg>
