<svg width="24" height="24" viewBox="0 0 24 24" fill="none" xmlns="http://www.w3.org/2000/svg">
<path d="M7 7C7 8.10457 6.10457 9 5 9V11C7.20914 11 9 9.20914 9 7H7ZM5 9C3.89543 9 3 8.10457 3 7H1C1 9.20914 2.79086 11 5 11V9ZM3 7C3 5.89543 3.89543 5 5 5V3C2.79086 3 1 4.79086 1 7H3ZM5 5C6.10457 5 7 5.89543 7 7H9C9 4.79086 7.20914 3 5 3V5Z" fill="#12141D"/>
<path d="M16 17C16 18.1046 16.8954 19 18 19V21C15.7909 21 14 19.2091 14 17H16ZM18 19C19.1046 19 20 18.1046 20 17H22C22 19.2091 20.2091 21 18 21V19ZM20 17C20 15.8954 19.1046 15 18 15V13C20.2091 13 22 14.7909 22 17H20ZM18 15C16.8954 15 16 15.8954 16 17H14C14 14.7909 15.7909 13 18 13V15Z" fill="#12141D"/>
<line x1="12" y1="7" x2="21" y2="7" stroke="#12141D" stroke-width="2" stroke-linecap="round"/>
<line x1="1" y1="-1" x2="10" y2="-1" transform="matrix(-1 0 0 1 12 18)" stroke="#12141D" stroke-width="2" stroke-linecap="round"/>
</svg>
