<svg width="246" height="247" viewBox="0 0 246 247" fill="none" xmlns="http://www.w3.org/2000/svg">
<path d="M128.081 152.64H195.617C193.601 159.808 190.689 166.416 186.881 172.464C183.073 178.512 178.369 183.888 172.769 188.592C167.393 193.296 160.897 196.992 153.281 199.68C145.665 202.144 137.041 203.376 127.409 203.376C112.849 203.376 99.7447 200.016 88.0967 193.296C76.6727 186.576 67.6007 177.168 60.8807 165.072C54.1607 152.752 50.8007 138.528 50.8007 122.4C50.8007 106.048 54.1607 91.936 60.8807 80.064C67.8247 68.192 77.1207 59.12 88.7687 52.848C100.417 46.352 113.297 43.104 127.409 43.104C142.417 43.104 155.073 46.352 165.377 52.848C175.905 59.12 184.081 67.408 189.905 77.712L230.897 53.856C223.729 42.88 215.105 33.472 205.025 25.632C195.169 17.568 183.745 11.296 170.753 6.81598C157.985 2.33597 143.537 0.0959627 127.409 0.0959627C109.265 0.0959627 92.4647 3.00797 77.0087 8.83197C61.5527 14.656 48.1127 22.944 36.6887 33.696C25.2647 44.448 16.3047 57.44 9.80868 72.672C3.53667 87.68 0.400674 104.256 0.400674 122.4C0.400674 140.544 3.42467 157.232 9.47267 172.464C15.7447 187.696 24.4807 200.8 35.6807 211.776C47.1047 222.752 60.4327 231.264 75.6647 237.312C91.1207 243.36 107.921 246.384 126.065 246.384C145.329 246.384 162.465 242.912 177.473 235.968C192.481 229.024 205.025 219.504 215.105 207.408C225.409 195.088 232.913 180.976 237.617 165.072C242.545 149.168 244.673 132.256 244.001 114.336H128.081V152.64Z" fill="#38F094"/>
</svg>
