<svg width="24" height="24" viewBox="0 0 24 24" fill="none" xmlns="http://www.w3.org/2000/svg">
<path d="M17.657 16.657L18.3641 17.3641L18.3641 17.364L17.657 16.657ZM13.414 20.9L14.1208 21.6074L14.1211 21.6071L13.414 20.9ZM10.587 20.9L9.87998 21.6071L9.88025 21.6074L10.587 20.9ZM6.343 16.657L5.63588 17.364L5.63598 17.3641L6.343 16.657ZM14 11C14 12.1046 13.1046 13 12 13V15C14.2091 15 16 13.2091 16 11H14ZM12 13C10.8954 13 10 12.1046 10 11H8C8 13.2091 9.79086 15 12 15V13ZM10 11C10 9.89543 10.8954 9 12 9V7C9.79086 7 8 8.79086 8 11H10ZM12 9C13.1046 9 14 9.89543 14 11H16C16 8.79086 14.2091 7 12 7V9ZM16.9499 15.9498L12.7069 20.1928L14.1211 21.6071L18.3641 17.3641L16.9499 15.9498ZM12.7073 20.1925C12.5197 20.3798 12.2655 20.485 12.0005 20.485V22.485C12.7956 22.485 13.5582 22.1694 14.1208 21.6074L12.7073 20.1925ZM12.0005 20.485C11.7355 20.485 11.4813 20.3798 11.2938 20.1925L9.88025 21.6074C10.4428 22.1694 11.2054 22.485 12.0005 22.485V20.485ZM11.294 20.1928L7.05003 15.9498L5.63598 17.3641L9.87998 21.6071L11.294 20.1928ZM7.05013 15.9499C6.0712 14.9709 5.40455 13.7236 5.13448 12.3657L3.1729 12.7559C3.52013 14.5017 4.37725 16.1053 5.63588 17.364L7.05013 15.9499ZM5.13448 12.3657C4.86441 11.0079 5.00306 9.60044 5.53288 8.32138L3.68513 7.55599C3.00393 9.20049 2.82567 11.0101 3.1729 12.7559L5.13448 12.3657ZM5.53288 8.32138C6.06271 7.04232 6.95991 5.94909 8.11105 5.17993L6.99992 3.51699C5.51989 4.5059 4.36633 5.91148 3.68513 7.55599L5.53288 8.32138ZM8.11105 5.17993C9.26219 4.41078 10.6156 4.00024 12 4.00024V2.00024C10.22 2.00024 8.47995 2.52807 6.99992 3.51699L8.11105 5.17993ZM12 4.00024C13.3845 4.00024 14.7378 4.41078 15.889 5.17993L17.0001 3.51699C15.5201 2.52807 13.78 2.00024 12 2.00024V4.00024ZM15.889 5.17993C17.0401 5.94909 17.9373 7.04232 18.4671 8.32138L20.3149 7.55599C19.6337 5.91148 18.4801 4.5059 17.0001 3.51699L15.889 5.17993ZM18.4671 8.32138C18.997 9.60044 19.1356 11.0079 18.8655 12.3657L20.8271 12.7559C21.1743 11.0101 20.9961 9.20049 20.3149 7.55599L18.4671 8.32138ZM18.8655 12.3657C18.5955 13.7236 17.9288 14.9709 16.9499 15.9499L18.3641 17.364C19.6228 16.1053 20.4799 14.5017 20.8271 12.7559L18.8655 12.3657Z" fill="#12141D"/>
</svg>
