<svg width="48" height="48" viewBox="0 0 48 48" fill="none" xmlns="http://www.w3.org/2000/svg">
<path d="M41 27.7778L40.2929 28.4849C40.5789 28.7709 41.009 28.8564 41.3827 28.7017C41.7564 28.5469 42 28.1822 42 27.7778H41ZM35.3333 22.1111L36.0404 21.404C35.8529 21.2165 35.5985 21.1111 35.3333 21.1111V22.1111ZM22.1111 7V6V7ZM39.1111 7V6V7ZM28.7778 26.8889C28.7778 26.3366 28.3301 25.8889 27.7778 25.8889C27.2255 25.8889 26.7778 26.3366 26.7778 26.8889H28.7778ZM12.6667 35.3333V34.3333C12.4015 34.3333 12.1471 34.4387 11.9596 34.6262L12.6667 35.3333ZM7 41H6C6 41.4045 6.24364 41.7691 6.61732 41.9239C6.99099 42.0787 7.42111 41.9931 7.70711 41.7071L7 41ZM15.4444 21.2222C15.9967 21.2222 16.4444 20.7745 16.4444 20.2222C16.4444 19.6699 15.9967 19.2222 15.4444 19.2222V21.2222ZM41.7071 27.0707L36.0404 21.404L34.6262 22.8182L40.2929 28.4849L41.7071 27.0707ZM35.3333 21.1111H22.1111V23.1111H35.3333V21.1111ZM22.1111 21.1111C21.8754 21.1111 21.6493 21.0175 21.4826 20.8508L20.0684 22.265C20.6101 22.8067 21.3449 23.1111 22.1111 23.1111V21.1111ZM21.4826 20.8508C21.3159 20.6841 21.2222 20.458 21.2222 20.2222H19.2222C19.2222 20.9884 19.5266 21.7232 20.0684 22.265L21.4826 20.8508ZM21.2222 20.2222V8.88889H19.2222V20.2222H21.2222ZM21.2222 8.88889C21.2222 8.65314 21.3159 8.42705 21.4826 8.26035L20.0684 6.84614C19.5266 7.38791 19.2222 8.12271 19.2222 8.88889H21.2222ZM21.4826 8.26035C21.6493 8.09365 21.8754 8 22.1111 8V6C21.3449 6 20.6101 6.30436 20.0684 6.84614L21.4826 8.26035ZM22.1111 8H39.1111V6H22.1111V8ZM39.1111 8C39.3469 8 39.573 8.09365 39.7397 8.26035L41.1539 6.84614C40.6121 6.30436 39.8773 6 39.1111 6V8ZM39.7397 8.26035C39.9063 8.42705 40 8.65314 40 8.88889H42C42 8.12271 41.6956 7.38791 41.1539 6.84614L39.7397 8.26035ZM40 8.88889V27.7778H42V8.88889H40ZM26.7778 26.8889V33.4444H28.7778V26.8889H26.7778ZM26.7778 33.4444C26.7778 33.6802 26.6841 33.9063 26.5174 34.073L27.9316 35.4872C28.4734 34.9454 28.7778 34.2106 28.7778 33.4444H26.7778ZM26.5174 34.073C26.3507 34.2397 26.1246 34.3333 25.8889 34.3333V36.3333C26.6551 36.3333 27.3899 36.029 27.9316 35.4872L26.5174 34.073ZM25.8889 34.3333H12.6667V36.3333H25.8889V34.3333ZM11.9596 34.6262L6.29289 40.2929L7.70711 41.7071L13.3738 36.0404L11.9596 34.6262ZM8 41V22.1111H6V41H8ZM8 22.1111C8 21.8754 8.09365 21.6493 8.26035 21.4826L6.84614 20.0684C6.30436 20.6101 6 21.3449 6 22.1111H8ZM8.26035 21.4826C8.42705 21.3159 8.65314 21.2222 8.88889 21.2222V19.2222C8.12271 19.2222 7.38791 19.5266 6.84614 20.0684L8.26035 21.4826ZM8.88889 21.2222H15.4444V19.2222H8.88889V21.2222Z" fill="#12141D"/>
</svg>
