<svg width="24" height="24" viewBox="0 0 24 24" fill="none" xmlns="http://www.w3.org/2000/svg">
<path d="M21 14L20.2929 14.7071C20.5789 14.9931 21.009 15.0787 21.3827 14.9239C21.7564 14.7691 22 14.4045 22 14H21ZM18 11L18.7071 10.2929C18.5196 10.1054 18.2652 10 18 10V11ZM11 3V2V3ZM20 3V2V3ZM15 15C15 14.4477 14.5523 14 14 14C13.4477 14 13 14.4477 13 15H15ZM6 18V17C5.73478 17 5.48043 17.1054 5.29289 17.2929L6 18ZM3 21H2C2 21.4045 2.24364 21.7691 2.61732 21.9239C2.99099 22.0787 3.42111 21.9931 3.70711 21.7071L3 21ZM6 11C6.55228 11 7 10.5523 7 10C7 9.44772 6.55228 9 6 9V11ZM21.7071 13.2929L18.7071 10.2929L17.2929 11.7071L20.2929 14.7071L21.7071 13.2929ZM18 10H11V12H18V10ZM11 10L9.58579 11.4142C9.96086 11.7893 10.4696 12 11 12V10ZM11 10H9C9 10.5304 9.21071 11.0391 9.58579 11.4142L11 10ZM11 10V4H9V10H11ZM11 4V4L9.58579 2.58579C9.21071 2.96086 9 3.46957 9 4H11ZM11 4V4V2C10.4696 2 9.96086 2.21071 9.58579 2.58579L11 4ZM11 4H20V2H11V4ZM20 4V4L21.4142 2.58579C21.0391 2.21071 20.5304 2 20 2V4ZM20 4V4H22C22 3.46957 21.7893 2.96086 21.4142 2.58579L20 4ZM20 4V14H22V4H20ZM13 15V17H15V15H13ZM13 17V17L14.4142 18.4142C14.7893 18.0391 15 17.5304 15 17H13ZM13 17V17V19C13.5304 19 14.0391 18.7893 14.4142 18.4142L13 17ZM13 17H6V19H13V17ZM5.29289 17.2929L2.29289 20.2929L3.70711 21.7071L6.70711 18.7071L5.29289 17.2929ZM4 21V11H2V21H4ZM4 11H4L2.58579 9.58579C2.21071 9.96086 2 10.4696 2 11H4ZM4 11H4V9C3.46957 9 2.96086 9.21071 2.58579 9.58579L4 11ZM4 11H6V9H4V11Z" fill="#12141D"/>
</svg>
