<svg width="24" height="24" viewBox="0 0 24 24" fill="none" xmlns="http://www.w3.org/2000/svg">
<path d="M9 4V3C8.44772 3 8 3.44772 8 4H9ZM19 4H20C20 3.44772 19.5523 3 19 3V4ZM9 7C8.44772 7 8 7.44772 8 8C8 8.55228 8.44772 9 9 9V7ZM19 9C19.5523 9 20 8.55228 20 8C20 7.44772 19.5523 7 19 7V9ZM8 17C8 18.1046 7.10457 19 6 19V21C8.20914 21 10 19.2091 10 17H8ZM6 19C4.89543 19 4 18.1046 4 17H2C2 19.2091 3.79086 21 6 21V19ZM4 17C4 15.8954 4.89543 15 6 15V13C3.79086 13 2 14.7909 2 17H4ZM6 15C7.10457 15 8 15.8954 8 17H10C10 14.7909 8.20914 13 6 13V15ZM18 17C18 18.1046 17.1046 19 16 19V21C18.2091 21 20 19.2091 20 17H18ZM16 19C14.8954 19 14 18.1046 14 17H12C12 19.2091 13.7909 21 16 21V19ZM14 17C14 15.8954 14.8954 15 16 15V13C13.7909 13 12 14.7909 12 17H14ZM16 15C17.1046 15 18 15.8954 18 17H20C20 14.7909 18.2091 13 16 13V15ZM10 17V4H8V17H10ZM9 5H19V3H9V5ZM18 4V17H20V4H18ZM9 9H19V7H9V9Z" fill="#12141D"/>
</svg>
