<svg width="24" height="24" viewBox="0 0 24 24" fill="none" xmlns="http://www.w3.org/2000/svg">
<path d="M7 4L7.5241 3.14834C7.21556 2.95847 6.82845 2.95032 6.5122 3.12705C6.19594 3.30377 6 3.63772 6 4H7ZM7 20H6C6 20.3623 6.19594 20.6962 6.5122 20.873C6.82845 21.0497 7.21556 21.0415 7.5241 20.8517L7 20ZM20 12L20.5241 12.8517C20.8198 12.6697 21 12.3473 21 12C21 11.6527 20.8198 11.3303 20.5241 11.1483L20 12ZM6 4V20H8V4H6ZM7.5241 20.8517L20.5241 12.8517L19.4759 11.1483L6.4759 19.1483L7.5241 20.8517ZM20.5241 11.1483L7.5241 3.14834L6.4759 4.85166L19.4759 12.8517L20.5241 11.1483Z" fill="#12141D"/>
</svg>
