<svg width="24" height="24" viewBox="0 0 24 24" fill="none" xmlns="http://www.w3.org/2000/svg">
<path d="M21 3L21.9406 3.33964C22.0722 2.97497 21.9813 2.56705 21.7071 2.29289C21.4329 2.01874 21.025 1.92776 20.6604 2.05945L21 3ZM14.5 21L15.4091 21.4166C15.4207 21.3914 15.4311 21.3657 15.4406 21.3396L14.5 21ZM14 21.3209V22.3209V21.3209ZM13.5 21L14.4091 20.5834C14.4044 20.5731 14.3995 20.5629 14.3944 20.5528L13.5 21ZM3.00001 10.5L3.44722 9.60557C3.4371 9.60051 3.42689 9.59562 3.41661 9.59091L3.00001 10.5ZM2.67914 10H3.67914H2.67914ZM3.00001 9.5L2.66036 8.55945C2.63429 8.56886 2.60862 8.57936 2.58341 8.59091L3.00001 9.5ZM10.7071 14.7071L21.7071 3.70711L20.2929 2.29289L9.29289 13.2929L10.7071 14.7071ZM20.0594 2.66036L13.5595 20.6604L15.4406 21.3396L21.9406 3.33964L20.0594 2.66036ZM13.5909 20.5834C13.6268 20.5051 13.6845 20.4387 13.757 20.3921L14.8372 22.0754C15.0869 21.9151 15.2855 21.6864 15.4091 21.4166L13.5909 20.5834ZM13.757 20.3921C13.8295 20.3456 13.9138 20.3209 14 20.3209V22.3209C14.2968 22.3209 14.5874 22.2357 14.8372 22.0754L13.757 20.3921ZM14 20.3209C14.0862 20.3209 14.1705 20.3456 14.2431 20.3921L13.1629 22.0754C13.4126 22.2357 13.7032 22.3209 14 22.3209V20.3209ZM14.2431 20.3921C14.3156 20.4387 14.3732 20.5051 14.4091 20.5834L12.5909 21.4166C12.7146 21.6864 12.9131 21.9151 13.1629 22.0754L14.2431 20.3921ZM14.3944 20.5528L10.8944 13.5528L9.10557 14.4472L12.6056 21.4472L14.3944 20.5528ZM10.4472 13.1056L3.44722 9.60557L2.5528 11.3944L9.55279 14.8944L10.4472 13.1056ZM3.41661 9.59091C3.49494 9.62681 3.56132 9.68444 3.60786 9.75696L1.92465 10.8371C2.08495 11.0869 2.31359 11.2854 2.58341 11.4091L3.41661 9.59091ZM3.60786 9.75696C3.6544 9.82948 3.67914 9.91383 3.67914 10H1.67914C1.67914 10.2968 1.76435 10.5874 1.92465 10.8371L3.60786 9.75696ZM3.67914 10C3.67914 10.0862 3.6544 10.1705 3.60786 10.243L1.92465 9.16286C1.76435 9.41264 1.67914 9.7032 1.67914 10H3.67914ZM3.60786 10.243C3.56132 10.3156 3.49494 10.3732 3.41661 10.4091L2.58341 8.59091C2.31359 8.71455 2.08495 8.91307 1.92465 9.16286L3.60786 10.243ZM3.33965 10.4406L21.3396 3.94055L20.6604 2.05945L2.66036 8.55945L3.33965 10.4406Z" fill="#12141D"/>
</svg>
