<svg width="48" height="48" viewBox="0 0 48 48" fill="none" xmlns="http://www.w3.org/2000/svg">
<path d="M23.9999 35.4999L24.4661 34.6152C24.1746 34.4616 23.8262 34.4615 23.5346 34.6148L23.9999 35.4999ZM11.6559 41.9899L10.6703 41.8208C10.606 42.196 10.7602 42.5752 11.0681 42.7989C11.3761 43.0227 11.7844 43.0522 12.1213 42.875L11.6559 41.9899ZM14.0139 28.2439L14.9995 28.413C15.0552 28.0883 14.9475 27.7571 14.7114 27.5273L14.0139 28.2439ZM4.01392 18.5099L3.87049 17.5202C3.49359 17.5749 3.18044 17.8388 3.06281 18.201C2.94518 18.5633 3.04351 18.9608 3.3164 19.2265L4.01392 18.5099ZM17.8139 16.5099L17.9573 17.4996C18.2832 17.4523 18.5649 17.2477 18.7107 16.9525L17.8139 16.5099ZM23.9859 4.00391L24.8827 3.56135C24.7142 3.22001 24.3666 3.00391 23.9859 3.00391C23.6053 3.00391 23.2576 3.22001 23.0892 3.56135L23.9859 4.00391ZM30.1579 16.5099L29.2612 16.9525C29.4069 17.2477 29.6886 17.4523 30.0145 17.4996L30.1579 16.5099ZM43.9579 18.5099L44.6554 19.2265C44.9283 18.9608 45.0266 18.5633 44.909 18.201C44.7914 17.8388 44.4782 17.5749 44.1013 17.5202L43.9579 18.5099ZM33.9579 28.2439L33.2604 27.5273C33.0244 27.7571 32.9166 28.0883 32.9723 28.413L33.9579 28.2439ZM36.3159 41.9899L35.8497 42.8746C36.1866 43.0521 36.5951 43.0229 36.9033 42.7992C37.2115 42.5755 37.3659 42.1962 37.3015 41.8208L36.3159 41.9899ZM23.5346 34.6148L11.1906 41.1048L12.1213 42.875L24.4653 36.385L23.5346 34.6148ZM12.6415 42.159L14.9995 28.413L13.0283 28.0748L10.6703 41.8208L12.6415 42.159ZM14.7114 27.5273L4.71143 17.7933L3.3164 19.2265L13.3164 28.9605L14.7114 27.5273ZM4.15735 19.4996L17.9573 17.4996L17.6705 15.5202L3.87049 17.5202L4.15735 19.4996ZM18.7107 16.9525L24.8827 4.44647L23.0892 3.56135L16.9172 16.0673L18.7107 16.9525ZM23.0892 4.44647L29.2612 16.9525L31.0547 16.0673L24.8827 3.56135L23.0892 4.44647ZM30.0145 17.4996L43.8145 19.4996L44.1013 17.5202L30.3013 15.5202L30.0145 17.4996ZM43.2604 17.7933L33.2604 27.5273L34.6554 28.9605L44.6554 19.2265L43.2604 17.7933ZM32.9723 28.413L35.3303 42.159L37.3015 41.8208L34.9435 28.0748L32.9723 28.413ZM36.7821 41.1052L24.4661 34.6152L23.5337 36.3846L35.8497 42.8746L36.7821 41.1052Z" fill="#12141D"/>
</svg>
