<svg width="24" height="24" viewBox="0 0 24 24" fill="none" xmlns="http://www.w3.org/2000/svg">
<path d="M4 6C3.44772 6 3 6.44772 3 7C3 7.55228 3.44772 8 4 8V6ZM20 8C20.5523 8 21 7.55228 21 7C21 6.44772 20.5523 6 20 6V8ZM11 11C11 10.4477 10.5523 10 10 10C9.44772 10 9 10.4477 9 11H11ZM9 17C9 17.5523 9.44772 18 10 18C10.5523 18 11 17.5523 11 17H9ZM15 11C15 10.4477 14.5523 10 14 10C13.4477 10 13 10.4477 13 11H15ZM13 17C13 17.5523 13.4477 18 14 18C14.5523 18 15 17.5523 15 17H13ZM5.99655 6.91695C5.95068 6.36658 5.46733 5.95759 4.91695 6.00345C4.36658 6.04932 3.95759 6.53267 4.00345 7.08305L5.99655 6.91695ZM6 19H7C7 18.9723 6.99885 18.9446 6.99655 18.917L6 19ZM18 19L17.0035 18.917C17.0012 18.9446 17 18.9723 17 19H18ZM19.9965 7.08305C20.0424 6.53267 19.6334 6.04932 19.083 6.00345C18.5327 5.95759 18.0493 6.36658 18.0035 6.91695L19.9965 7.08305ZM8 7C8 7.55228 8.44772 8 9 8C9.55228 8 10 7.55228 10 7H8ZM10 3V2V3ZM14 3V2V3ZM14 7C14 7.55228 14.4477 8 15 8C15.5523 8 16 7.55228 16 7H14ZM4 8H20V6H4V8ZM9 11V17H11V11H9ZM13 11V17H15V11H13ZM4.00345 7.08305L5.00345 19.083L6.99655 18.917L5.99655 6.91695L4.00345 7.08305ZM5 19C5 19.7957 5.31607 20.5587 5.87868 21.1213L7.29289 19.7071C7.10536 19.5196 7 19.2652 7 19H5ZM5.87868 21.1213C6.44129 21.6839 7.20435 22 8 22V20C7.73478 20 7.48043 19.8946 7.29289 19.7071L5.87868 21.1213ZM8 22H16V20H8V22ZM16 22C16.7957 22 17.5587 21.6839 18.1213 21.1213L16.7071 19.7071C16.5196 19.8946 16.2652 20 16 20V22ZM18.1213 21.1213C18.6839 20.5587 19 19.7957 19 19H17C17 19.2652 16.8946 19.5196 16.7071 19.7071L18.1213 21.1213ZM18.9965 19.083L19.9965 7.08305L18.0035 6.91695L17.0035 18.917L18.9965 19.083ZM10 7V4H8V7H10ZM10 4V4L8.58579 2.58579C8.21071 2.96086 8 3.46957 8 4H10ZM10 4V4V2C9.46957 2 8.96086 2.21071 8.58579 2.58579L10 4ZM10 4H14V2H10V4ZM14 4V4L15.4142 2.58579C15.0391 2.21071 14.5304 2 14 2V4ZM14 4V4H16C16 3.46957 15.7893 2.96086 15.4142 2.58579L14 4ZM14 4V7H16V4H14Z" fill="#12141D"/>
</svg>
