<svg width="24" height="24" viewBox="0 0 24 24" fill="none" xmlns="http://www.w3.org/2000/svg">
<path d="M5 17C5 16.4477 4.55228 16 4 16C3.44772 16 3 16.4477 3 17H5ZM4 19H3H4ZM21 17C21 16.4477 20.5523 16 20 16C19.4477 16 19 16.4477 19 17H21ZM6.29289 8.29289C5.90237 8.68342 5.90237 9.31658 6.29289 9.70711C6.68342 10.0976 7.31658 10.0976 7.70711 9.70711L6.29289 8.29289ZM12 4L12.7071 3.29289C12.3166 2.90237 11.6834 2.90237 11.2929 3.29289L12 4ZM16.2929 9.70711C16.6834 10.0976 17.3166 10.0976 17.7071 9.70711C18.0976 9.31658 18.0976 8.68342 17.7071 8.29289L16.2929 9.70711ZM11 16C11 16.5523 11.4477 17 12 17C12.5523 17 13 16.5523 13 16H11ZM3 17V19H5V17H3ZM3 19C3 19.7956 3.31607 20.5587 3.87868 21.1213L5.29289 19.7071C5.10536 19.5196 5 19.2652 5 19H3ZM3.87868 21.1213C4.44129 21.6839 5.20435 22 6 22V20C5.73478 20 5.48043 19.8946 5.29289 19.7071L3.87868 21.1213ZM6 22H18V20H6V22ZM18 22C18.7957 22 19.5587 21.6839 20.1213 21.1213L18.7071 19.7071C18.5196 19.8946 18.2652 20 18 20V22ZM20.1213 21.1213C20.6839 20.5587 21 19.7957 21 19H19C19 19.2652 18.8946 19.5196 18.7071 19.7071L20.1213 21.1213ZM21 19V17H19V19H21ZM7.70711 9.70711L12.7071 4.70711L11.2929 3.29289L6.29289 8.29289L7.70711 9.70711ZM11.2929 4.70711L16.2929 9.70711L17.7071 8.29289L12.7071 3.29289L11.2929 4.70711ZM11 4V16H13V4H11Z" fill="#12141D"/>
</svg>
