<svg width="24" height="24" viewBox="0 0 24 24" fill="none" xmlns="http://www.w3.org/2000/svg">
<path d="M5 21C5 21.5523 5.44772 22 6 22C6.55228 22 7 21.5523 7 21H5ZM10 15V14V15ZM14 15V14V15ZM17 21C17 21.5523 17.4477 22 18 22C18.5523 22 19 21.5523 19 21H17ZM15 7C15 8.65685 13.6569 10 12 10V12C14.7614 12 17 9.76142 17 7H15ZM12 10C10.3431 10 9 8.65685 9 7H7C7 9.76142 9.23858 12 12 12V10ZM9 7C9 5.34315 10.3431 4 12 4V2C9.23858 2 7 4.23858 7 7H9ZM12 4C13.6569 4 15 5.34315 15 7H17C17 4.23858 14.7614 2 12 2V4ZM7 21V19H5V21H7ZM7 19C7 18.2044 7.31607 17.4413 7.87868 16.8787L6.46447 15.4645C5.52678 16.4021 5 17.6739 5 19H7ZM7.87868 16.8787C8.44129 16.3161 9.20435 16 10 16V14C8.67392 14 7.40215 14.5268 6.46447 15.4645L7.87868 16.8787ZM10 16H14V14H10V16ZM14 16C14.7956 16 15.5587 16.3161 16.1213 16.8787L17.5355 15.4645C16.5979 14.5268 15.3261 14 14 14V16ZM16.1213 16.8787C16.6839 17.4413 17 18.2044 17 19H19C19 17.6739 18.4732 16.4021 17.5355 15.4645L16.1213 16.8787ZM17 19V21H19V19H17Z" fill="#12141D"/>
</svg>
