<svg aria-hidden="true" style="position: absolute; width: 0; height: 0; overflow: hidden;" version="1.1" xmlns="http://www.w3.org/2000/svg" xmlns:xlink="http://www.w3.org/1999/xlink">
<defs>
<symbol id="icon-arrow-bar-left" viewBox="0 0 32 32">
<path d="M5.333 16l-0.943 0.943c-0.521-0.521-0.521-1.365 0-1.886l0.943 0.943zM18.667 14.667c0.736 0 1.333 0.597 1.333 1.333s-0.597 1.333-1.333 1.333v-2.667zM11.609 20.391c0.521 0.521 0.521 1.365 0 1.886s-1.365 0.521-1.886 0l1.886-1.886zM9.724 9.724c0.521-0.521 1.365-0.521 1.886 0s0.521 1.365 0 1.886l-1.886-1.886zM25.333 5.333c0-0.736 0.597-1.333 1.333-1.333s1.333 0.597 1.333 1.333h-2.667zM28 26.667c0 0.736-0.597 1.333-1.333 1.333s-1.333-0.597-1.333-1.333h2.667zM5.333 14.667h13.333v2.667h-13.333v-2.667zM6.276 15.057l5.333 5.333-1.886 1.886-5.333-5.333 1.886-1.886zM4.391 15.057l5.333-5.333 1.886 1.886-5.333 5.333-1.886-1.886zM28 5.333v21.333h-2.667v-21.333h2.667z"></path>
</symbol>
<symbol id="icon-arrow-bar-right" viewBox="0 0 32 32">
<path d="M26.667 16l0.943 0.943c0.521-0.521 0.521-1.365 0-1.886l-0.943 0.943zM13.333 14.667c-0.736 0-1.333 0.597-1.333 1.333s0.597 1.333 1.333 1.333v-2.667zM20.391 20.391c-0.521 0.521-0.521 1.365 0 1.886s1.365 0.521 1.886 0l-1.886-1.886zM22.276 9.724c-0.521-0.521-1.365-0.521-1.886 0s-0.521 1.365 0 1.886l1.886-1.886zM6.667 5.333c0-0.736-0.597-1.333-1.333-1.333s-1.333 0.597-1.333 1.333h2.667zM4 26.667c0 0.736 0.597 1.333 1.333 1.333s1.333-0.597 1.333-1.333h-2.667zM26.667 14.667h-13.333v2.667h13.333v-2.667zM25.724 15.057l-5.333 5.333 1.886 1.886 5.333-5.333-1.886-1.886zM27.609 15.057l-5.333-5.333-1.886 1.886 5.333 5.333 1.886-1.886zM4 5.333v21.333h2.667v-21.333h-2.667z"></path>
</symbol>
<symbol id="icon-bell" viewBox="0 0 32 32">
<path d="M13.333 6.667l0.57 1.205c0.466-0.22 0.763-0.69 0.763-1.205h-1.333zM16 4v0zM18.667 6.667h-1.333c0 0.516 0.297 0.985 0.763 1.205l0.57-1.205zM24 14.667h1.333c0-0.021-0.001-0.042-0.001-0.063l-1.332 0.063zM24 18.667h-1.333c0 0.054 0.003 0.107 0.010 0.16l1.324-0.16zM26.667 22.667v1.333c0.606 0 1.135-0.408 1.289-0.994s-0.105-1.202-0.632-1.5l-0.657 1.16zM5.333 22.667l-0.657-1.16c-0.527 0.298-0.787 0.914-0.632 1.5s0.684 0.994 1.289 0.994v-1.333zM8 18.667l1.324 0.16c0.006-0.053 0.010-0.107 0.010-0.16h-1.333zM8 14.667l-1.332-0.063c-0.001 0.021-0.001 0.042-0.001 0.063h1.333zM13.333 22.667c0-0.736-0.597-1.333-1.333-1.333s-1.333 0.597-1.333 1.333h2.667zM16 28v0zM21.333 22.667c0-0.736-0.597-1.333-1.333-1.333s-1.333 0.597-1.333 1.333h2.667zM14.667 6.667c0-0.354 0.141-0.693 0.391-0.943l-1.886-1.886c-0.75 0.75-1.172 1.768-1.172 2.828h2.667zM15.057 5.724c0.25-0.25 0.589-0.391 0.943-0.391v-2.667c-1.061 0-2.078 0.421-2.828 1.172l1.886 1.886zM16 5.333c0.354 0 0.693 0.14 0.943 0.391l1.886-1.886c-0.75-0.75-1.768-1.172-2.828-1.172v2.667zM16.943 5.724c0.25 0.25 0.391 0.589 0.391 0.943h2.667c0-1.061-0.421-2.078-1.172-2.828l-1.886 1.886zM18.097 7.872c1.313 0.621 2.431 1.587 3.237 2.795l2.219-1.479c-1.074-1.611-2.566-2.899-4.315-3.726l-1.14 2.411zM21.333 10.667c0.805 1.208 1.267 2.612 1.335 4.063l2.664-0.125c-0.091-1.934-0.706-3.806-1.78-5.417l-2.219 1.479zM22.667 14.667v4h2.667v-4h-2.667zM22.676 18.827c0.125 1.036 0.492 2.028 1.071 2.897l2.219-1.479c-0.347-0.521-0.568-1.116-0.643-1.738l-2.647 0.321zM23.748 21.724c0.579 0.869 1.354 1.589 2.262 2.103l1.314-2.321c-0.545-0.309-1.010-0.741-1.357-1.262l-2.219 1.479zM26.667 21.333h-21.333v2.667h21.333v-2.667zM5.99 23.827c0.908-0.514 1.683-1.235 2.262-2.103l-2.219-1.479c-0.347 0.521-0.812 0.953-1.357 1.262l1.314 2.321zM8.252 21.724c0.579-0.868 0.946-1.861 1.071-2.897l-2.647-0.321c-0.075 0.622-0.295 1.217-0.643 1.738l2.219 1.479zM9.333 18.667v-4h-2.667v4h2.667zM9.332 14.729c0.068-1.45 0.53-2.855 1.335-4.063l-2.219-1.479c-1.074 1.611-1.689 3.483-1.78 5.417l2.664 0.125zM10.667 10.667c0.805-1.208 1.924-2.174 3.237-2.795l-1.14-2.411c-1.75 0.827-3.242 2.116-4.316 3.726l2.219 1.479zM10.667 22.667v1.333h2.667v-1.333h-2.667zM10.667 24c0 1.415 0.562 2.771 1.562 3.771l1.886-1.886c-0.5-0.5-0.781-1.178-0.781-1.886h-2.667zM12.229 27.771c1 1 2.357 1.562 3.771 1.562v-2.667c-0.707 0-1.385-0.281-1.886-0.781l-1.886 1.886zM16 29.333c1.415 0 2.771-0.562 3.771-1.562l-1.886-1.886c-0.5 0.5-1.178 0.781-1.886 0.781v2.667zM19.771 27.771c1-1 1.562-2.357 1.562-3.771h-2.667c0 0.707-0.281 1.385-0.781 1.886l1.886 1.886zM21.333 24v-1.333h-2.667v1.333h2.667z"></path>
</symbol>
<symbol id="icon-brand-facebook" viewBox="0 0 32 32">
<path d="M9.333 13.333v-1.333c-0.736 0-1.333 0.597-1.333 1.333h1.333zM9.333 18.667h-1.333c0 0.736 0.597 1.333 1.333 1.333v-1.333zM13.333 18.667h1.333c0-0.736-0.597-1.333-1.333-1.333v1.333zM13.333 28h-1.333c0 0.736 0.597 1.333 1.333 1.333v-1.333zM18.667 28v1.333c0.736 0 1.333-0.597 1.333-1.333h-1.333zM18.667 18.667v-1.333c-0.736 0-1.333 0.597-1.333 1.333h1.333zM22.667 18.667v1.333c0.612 0 1.145-0.416 1.293-1.010l-1.293-0.323zM24 13.333l1.293 0.323c0.1-0.398 0.010-0.82-0.243-1.144s-0.64-0.513-1.051-0.513v1.333zM18.667 13.333h-1.333c0 0.736 0.597 1.333 1.333 1.333v-1.333zM20 9.333v0zM24 9.333v1.333c0.736 0 1.333-0.597 1.333-1.333h-1.333zM24 4h1.333c0-0.736-0.597-1.333-1.333-1.333v1.333zM13.333 10.667v0zM13.333 13.333v1.333c0.736 0 1.333-0.597 1.333-1.333h-1.333zM8 13.333v5.333h2.667v-5.333h-2.667zM9.333 20h4v-2.667h-4v2.667zM12 18.667v9.333h2.667v-9.333h-2.667zM13.333 29.333h5.333v-2.667h-5.333v2.667zM20 28v-9.333h-2.667v9.333h2.667zM18.667 20h4v-2.667h-4v2.667zM23.96 18.99l1.333-5.333-2.587-0.647-1.333 5.333 2.587 0.647zM24 12h-5.333v2.667h5.333v-2.667zM20 13.333v-2.667h-2.667v2.667h2.667zM20 10.667l-1.886-1.886c-0.5 0.5-0.781 1.178-0.781 1.886h2.667zM20 10.667v-2.667c-0.707 0-1.385 0.281-1.886 0.781l1.886 1.886zM20 10.667h4v-2.667h-4v2.667zM25.333 9.333v-5.333h-2.667v5.333h2.667zM24 2.667h-4v2.667h4v-2.667zM20 2.667c-2.122 0-4.157 0.843-5.657 2.343l1.886 1.886c1-1 2.357-1.562 3.771-1.562v-2.667zM14.343 5.010c-1.5 1.5-2.343 3.535-2.343 5.657h2.667c0-1.415 0.562-2.771 1.562-3.771l-1.886-1.886zM12 10.667v2.667h2.667v-2.667h-2.667zM13.333 12h-4v2.667h4v-2.667z"></path>
</symbol>
<symbol id="icon-brand-instagram" viewBox="0 0 32 32">
<path d="M10.667 6.667h10.667v-2.667h-10.667v2.667zM21.333 6.667c2.209 0 4 1.791 4 4h2.667c0-3.682-2.985-6.667-6.667-6.667v2.667zM25.333 10.667v10.667h2.667v-10.667h-2.667zM25.333 21.333c0 2.209-1.791 4-4 4v2.667c3.682 0 6.667-2.985 6.667-6.667h-2.667zM21.333 25.333h-10.667v2.667h10.667v-2.667zM10.667 25.333c-2.209 0-4-1.791-4-4h-2.667c0 3.682 2.985 6.667 6.667 6.667v-2.667zM6.667 21.333v-10.667h-2.667v10.667h2.667zM6.667 10.667c0-2.209 1.791-4 4-4v-2.667c-3.682 0-6.667 2.985-6.667 6.667h2.667zM18.667 16c0 1.473-1.194 2.667-2.667 2.667v2.667c2.945 0 5.333-2.388 5.333-5.333h-2.667zM16 18.667c-1.473 0-2.667-1.194-2.667-2.667h-2.667c0 2.945 2.388 5.333 5.333 5.333v-2.667zM13.333 16c0-1.473 1.194-2.667 2.667-2.667v-2.667c-2.946 0-5.333 2.388-5.333 5.333h2.667zM16 13.333c1.473 0 2.667 1.194 2.667 2.667h2.667c0-2.946-2.388-5.333-5.333-5.333v2.667z"></path>
</symbol>
<symbol id="icon-brand-soundcloud" viewBox="0 0 32 32">
<path d="M22.667 14.667l-1.307 0.261c0.125 0.623 0.672 1.072 1.307 1.072v-1.333zM16 22.667h-1.333c0 0.736 0.597 1.333 1.333 1.333v-1.333zM16 9.333v-1.333c-0.736 0-1.333 0.597-1.333 1.333h1.333zM13.333 10.667c0-0.736-0.597-1.333-1.333-1.333s-1.333 0.597-1.333 1.333h2.667zM10.667 22.667c0 0.736 0.597 1.333 1.333 1.333s1.333-0.597 1.333-1.333h-2.667zM6.667 22.667c0 0.736 0.597 1.333 1.333 1.333s1.333-0.597 1.333-1.333h-2.667zM9.333 13.333c0-0.736-0.597-1.333-1.333-1.333s-1.333 0.597-1.333 1.333h2.667zM2.667 21.333c0 0.736 0.597 1.333 1.333 1.333s1.333-0.597 1.333-1.333h-2.667zM5.333 18.667c0-0.736-0.597-1.333-1.333-1.333s-1.333 0.597-1.333 1.333h2.667zM22.667 16h1.333v-2.667h-1.333v2.667zM24 16c0.534 0 1.222 0.262 1.785 0.782 0.548 0.507 0.882 1.169 0.882 1.884h2.667c0-1.587-0.746-2.924-1.738-3.842-0.977-0.904-2.29-1.492-3.595-1.492v2.667zM26.667 18.667c0 1.429-1.358 2.667-2.667 2.667v2.667c2.691 0 5.333-2.343 5.333-5.333h-2.667zM24 21.333h-8v2.667h8v-2.667zM17.333 22.667v-13.333h-2.667v13.333h2.667zM16 10.667c1.777 0 2.942 0.441 3.722 1.101 0.786 0.665 1.343 1.689 1.637 3.16l2.615-0.523c-0.372-1.862-1.149-3.505-2.53-4.673-1.386-1.173-3.221-1.732-5.445-1.732v2.667zM10.667 10.667v12h2.667v-12h-2.667zM9.333 22.667v-9.333h-2.667v9.333h2.667zM5.333 21.333v-2.667h-2.667v2.667h2.667z"></path>
</symbol>
<symbol id="icon-brand-spotify" viewBox="0 0 32 32">
<path d="M9.99 14.815c-0.634 0.374-0.846 1.191-0.472 1.826s1.191 0.846 1.826 0.472l-1.354-2.298zM19.867 17.733c0.589 0.442 1.425 0.322 1.867-0.267s0.322-1.425-0.267-1.867l-1.6 2.133zM11.26 18.891c-0.613 0.409-0.778 1.236-0.37 1.849s1.236 0.778 1.849 0.37l-1.479-2.219zM17.557 21.407c0.409 0.613 1.236 0.778 1.849 0.37s0.778-1.236 0.37-1.849l-2.219 1.479zM8.737 10.808c-0.659 0.329-0.926 1.13-0.596 1.789s1.13 0.926 1.789 0.596l-1.193-2.385zM21.96 13.798c0.624 0.39 1.447 0.2 1.837-0.424s0.2-1.447-0.424-1.837l-1.413 2.261zM26.667 16c0 5.891-4.776 10.667-10.667 10.667v2.667c7.364 0 13.333-5.97 13.333-13.333h-2.667zM16 26.667c-5.891 0-10.667-4.776-10.667-10.667h-2.667c0 7.364 5.97 13.333 13.333 13.333v-2.667zM5.333 16c0-5.891 4.776-10.667 10.667-10.667v-2.667c-7.364 0-13.333 5.97-13.333 13.333h2.667zM16 5.333c5.891 0 10.667 4.776 10.667 10.667h2.667c0-7.364-5.97-13.333-13.333-13.333v2.667zM11.344 17.113c2.795-1.647 6.213-1.112 8.523 0.621l1.6-2.133c-3.023-2.267-7.605-3.066-11.477-0.785l1.354 2.298zM12.74 21.11c0.738-0.492 1.776-0.761 2.755-0.696 0.982 0.066 1.696 0.443 2.063 0.993l2.219-1.479c-0.967-1.451-2.586-2.073-4.104-2.174-1.521-0.101-3.149 0.296-4.412 1.138l1.479 2.219zM9.93 13.193c2.414-1.207 7.224-2.399 12.030 0.605l1.413-2.261c-5.86-3.663-11.717-2.188-14.636-0.729l1.193 2.385z"></path>
</symbol>
<symbol id="icon-brand-youtube" viewBox="0 0 32 32">
<path d="M13.333 12l0.686-1.143c-0.412-0.247-0.925-0.254-1.343-0.017s-0.676 0.68-0.676 1.16h1.333zM20 16l0.686 1.143c0.402-0.241 0.647-0.675 0.647-1.143s-0.246-0.902-0.647-1.143l-0.686 1.143zM13.333 20h-1.333c0 0.48 0.258 0.924 0.676 1.16s0.931 0.23 1.343-0.017l-0.686-1.143zM9.333 8h13.333v-2.667h-13.333v2.667zM22.667 8c2.209 0 4 1.791 4 4h2.667c0-3.682-2.985-6.667-6.667-6.667v2.667zM26.667 12v8h2.667v-8h-2.667zM26.667 20c0 2.209-1.791 4-4 4v2.667c3.682 0 6.667-2.985 6.667-6.667h-2.667zM22.667 24h-13.333v2.667h13.333v-2.667zM9.333 24c-2.209 0-4-1.791-4-4h-2.667c0 3.682 2.985 6.667 6.667 6.667v-2.667zM5.333 20v-8h-2.667v8h2.667zM5.333 12c0-2.209 1.791-4 4-4v-2.667c-3.682 0-6.667 2.985-6.667 6.667h2.667zM12.647 13.143l6.667 4 1.372-2.287-6.667-4-1.372 2.287zM19.314 14.857l-6.667 4 1.372 2.287 6.667-4-1.372-2.287zM14.667 20v-8h-2.667v8h2.667z"></path>
</symbol>
<symbol id="icon-calendar" viewBox="0 0 32 32">
<path d="M22.667 4c0-0.736-0.597-1.333-1.333-1.333s-1.333 0.597-1.333 1.333h2.667zM20 9.333c0 0.736 0.597 1.333 1.333 1.333s1.333-0.597 1.333-1.333h-2.667zM12 4c0-0.736-0.597-1.333-1.333-1.333s-1.333 0.597-1.333 1.333h2.667zM9.333 9.333c0 0.736 0.597 1.333 1.333 1.333s1.333-0.597 1.333-1.333h-2.667zM5.333 13.333c-0.736 0-1.333 0.597-1.333 1.333s0.597 1.333 1.333 1.333v-2.667zM26.667 16c0.736 0 1.333-0.597 1.333-1.333s-0.597-1.333-1.333-1.333v2.667zM8 8h16v-2.667h-16v2.667zM24 8c0.736 0 1.333 0.597 1.333 1.333h2.667c0-2.209-1.791-4-4-4v2.667zM25.333 9.333v16h2.667v-16h-2.667zM25.333 25.333c0 0.736-0.597 1.333-1.333 1.333v2.667c2.209 0 4-1.791 4-4h-2.667zM24 26.667h-16v2.667h16v-2.667zM8 26.667c-0.736 0-1.333-0.597-1.333-1.333h-2.667c0 2.209 1.791 4 4 4v-2.667zM6.667 25.333v-16h-2.667v16h2.667zM6.667 9.333c0-0.736 0.597-1.333 1.333-1.333v-2.667c-2.209 0-4 1.791-4 4h2.667zM20 4v5.333h2.667v-5.333h-2.667zM9.333 4v5.333h2.667v-5.333h-2.667zM5.333 16h21.333v-2.667h-21.333v2.667z"></path>
</symbol>
<symbol id="icon-calendar-plus" viewBox="0 0 32 32">
<path d="M22.667 4c0-0.736-0.597-1.333-1.333-1.333s-1.333 0.597-1.333 1.333h2.667zM20 9.333c0 0.736 0.597 1.333 1.333 1.333s1.333-0.597 1.333-1.333h-2.667zM12 4c0-0.736-0.597-1.333-1.333-1.333s-1.333 0.597-1.333 1.333h2.667zM9.333 9.333c0 0.736 0.597 1.333 1.333 1.333s1.333-0.597 1.333-1.333h-2.667zM5.333 13.333c-0.736 0-1.333 0.597-1.333 1.333s0.597 1.333 1.333 1.333v-2.667zM26.667 16c0.736 0 1.333-0.597 1.333-1.333s-0.597-1.333-1.333-1.333v2.667zM13.333 20c-0.736 0-1.333 0.597-1.333 1.333s0.597 1.333 1.333 1.333v-2.667zM18.667 22.667c0.736 0 1.333-0.597 1.333-1.333s-0.597-1.333-1.333-1.333v2.667zM17.333 18.667c0-0.736-0.597-1.333-1.333-1.333s-1.333 0.597-1.333 1.333h2.667zM14.667 24c0 0.736 0.597 1.333 1.333 1.333s1.333-0.597 1.333-1.333h-2.667zM8 8h16v-2.667h-16v2.667zM24 8c0.736 0 1.333 0.597 1.333 1.333h2.667c0-2.209-1.791-4-4-4v2.667zM25.333 9.333v16h2.667v-16h-2.667zM25.333 25.333c0 0.736-0.597 1.333-1.333 1.333v2.667c2.209 0 4-1.791 4-4h-2.667zM24 26.667h-16v2.667h16v-2.667zM8 26.667c-0.736 0-1.333-0.597-1.333-1.333h-2.667c0 2.209 1.791 4 4 4v-2.667zM6.667 25.333v-16h-2.667v16h2.667zM6.667 9.333c0-0.736 0.597-1.333 1.333-1.333v-2.667c-2.209 0-4 1.791-4 4h2.667zM20 4v5.333h2.667v-5.333h-2.667zM9.333 4v5.333h2.667v-5.333h-2.667zM5.333 16h21.333v-2.667h-21.333v2.667zM13.333 22.667h5.333v-2.667h-5.333v2.667zM14.667 18.667v5.333h2.667v-5.333h-2.667z"></path>
</symbol>
<symbol id="icon-calendar-x" viewBox="0 0 32 32">
<path stroke-linejoin="round" stroke-linecap="round" stroke-miterlimit="4" stroke-width="2.6667" d="M21.333 4v5.333M10.667 4v5.333M5.333 14.667h21.333M8 6.667h16c1.473 0 2.667 1.194 2.667 2.667v16c0 1.473-1.194 2.667-2.667 2.667h-16c-1.473 0-2.667-1.194-2.667-2.667v-16c0-1.473 1.194-2.667 2.667-2.667z"></path>
<path stroke-linejoin="round" stroke-linecap="round" stroke-miterlimit="4" stroke-width="2.6667" d="M14.114 23.219l3.771-3.771M14.114 19.448l3.771 3.771"></path>
</symbol>
<symbol id="icon-camera-plus" viewBox="0 0 32 32">
<path d="M6.667 9.333v0zM9.333 9.333v0zM13.333 5.333v0zM16 6.667c0.736 0 1.333-0.597 1.333-1.333s-0.597-1.333-1.333-1.333v2.667zM29.333 14.667c0-0.736-0.597-1.333-1.333-1.333s-1.333 0.597-1.333 1.333h2.667zM4 24v0zM20 6.667c-0.736 0-1.333 0.597-1.333 1.333s0.597 1.333 1.333 1.333v-2.667zM28 9.333c0.736 0 1.333-0.597 1.333-1.333s-0.597-1.333-1.333-1.333v2.667zM25.333 4c0-0.736-0.597-1.333-1.333-1.333s-1.333 0.597-1.333 1.333h2.667zM22.667 12c0 0.736 0.597 1.333 1.333 1.333s1.333-0.597 1.333-1.333h-2.667zM18.667 17.333c0 1.473-1.194 2.667-2.667 2.667v2.667c2.945 0 5.333-2.388 5.333-5.333h-2.667zM16 20c-1.473 0-2.667-1.194-2.667-2.667h-2.667c0 2.945 2.388 5.333 5.333 5.333v-2.667zM13.333 17.333c0-1.473 1.194-2.667 2.667-2.667v-2.667c-2.946 0-5.333 2.388-5.333 5.333h2.667zM16 14.667c1.473 0 2.667 1.194 2.667 2.667h2.667c0-2.945-2.388-5.333-5.333-5.333v2.667zM6.667 10.667h2.667v-2.667h-2.667v2.667zM9.333 10.667c1.061 0 2.078-0.421 2.828-1.172l-1.886-1.886c-0.25 0.25-0.589 0.391-0.943 0.391v2.667zM12.162 9.495c0.75-0.75 1.172-1.768 1.172-2.828h-2.667c0 0.354-0.14 0.693-0.391 0.943l1.886 1.886zM13.333 6.667v0l-1.886-1.886c-0.5 0.5-0.781 1.178-0.781 1.886h2.667zM13.333 6.667v0-2.667c-0.707 0-1.386 0.281-1.886 0.781l1.886 1.886zM13.333 6.667h2.667v-2.667h-2.667v2.667zM26.667 14.667v9.333h2.667v-9.333h-2.667zM26.667 24c0 0.354-0.141 0.693-0.391 0.943l1.886 1.886c0.75-0.75 1.172-1.767 1.172-2.828h-2.667zM26.276 24.943c-0.25 0.25-0.589 0.391-0.943 0.391v2.667c1.061 0 2.078-0.421 2.828-1.172l-1.886-1.886zM25.333 25.333h-18.667v2.667h18.667v-2.667zM6.667 25.333c-0.354 0-0.693-0.141-0.943-0.391l-1.886 1.886c0.75 0.75 1.768 1.172 2.828 1.172v-2.667zM5.724 24.943c-0.25-0.25-0.391-0.589-0.391-0.943h-2.667c0 1.061 0.421 2.078 1.172 2.828l1.886-1.886zM5.333 24v-12h-2.667v12h2.667zM5.333 12c0-0.354 0.14-0.693 0.391-0.943l-1.886-1.886c-0.75 0.75-1.172 1.768-1.172 2.828h2.667zM5.724 11.057c0.25-0.25 0.589-0.391 0.943-0.391v-2.667c-1.061 0-2.078 0.421-2.828 1.172l1.886 1.886zM20 9.333h8v-2.667h-8v2.667zM22.667 4v8h2.667v-8h-2.667z"></path>
</symbol>
<symbol id="icon-caret-down" viewBox="0 0 32 32">
<path d="M8 12l8 8 8-8h-16z"></path>
</symbol>
<symbol id="icon-caret-up" viewBox="0 0 32 32">
<path d="M24 20l-8-8-8 8h16z"></path>
</symbol>
<symbol id="icon-check" viewBox="0 0 32 32">
<path d="M7.609 15.057c-0.521-0.521-1.365-0.521-1.886 0s-0.521 1.365 0 1.886l1.886-1.886zM13.333 22.667l-0.943 0.943c0.521 0.521 1.365 0.521 1.886 0l-0.943-0.943zM27.609 10.276c0.521-0.521 0.521-1.365 0-1.886s-1.365-0.521-1.886 0l1.886 1.886zM5.724 16.943l6.667 6.667 1.886-1.886-6.667-6.667-1.886 1.886zM14.276 23.609l13.333-13.333-1.886-1.886-13.333 13.333 1.886 1.886z"></path>
</symbol>
<symbol id="icon-chevron-down" viewBox="0 0 32 32">
<path d="M8.943 11.057c-0.521-0.521-1.365-0.521-1.886 0s-0.521 1.365 0 1.886l1.886-1.886zM16 20l-0.943 0.943c0.521 0.521 1.365 0.521 1.886 0l-0.943-0.943zM24.943 12.943c0.521-0.521 0.521-1.365 0-1.886s-1.365-0.521-1.886 0l1.886 1.886zM7.057 12.943l8 8 1.886-1.886-8-8-1.886 1.886zM16.943 20.943l8-8-1.886-1.886-8 8 1.886 1.886z"></path>
</symbol>
<symbol id="icon-chevron-left" viewBox="0 0 32 32">
<path d="M20.943 8.943c0.521-0.521 0.521-1.365 0-1.886s-1.365-0.521-1.886 0l1.886 1.886zM12 16l-0.943-0.943c-0.521 0.521-0.521 1.365 0 1.886l0.943-0.943zM19.057 24.943c0.521 0.521 1.365 0.521 1.886 0s0.521-1.365 0-1.886l-1.886 1.886zM19.057 7.057l-8 8 1.886 1.886 8-8-1.886-1.886zM11.057 16.943l8 8 1.886-1.886-8-8-1.886 1.886z"></path>
</symbol>
<symbol id="icon-chevron-right" viewBox="0 0 32 32">
<path d="M12.943 7.057c-0.521-0.521-1.365-0.521-1.886 0s-0.521 1.365 0 1.886l1.886-1.886zM20 16l0.943 0.943c0.521-0.521 0.521-1.365 0-1.886l-0.943 0.943zM11.057 23.057c-0.521 0.521-0.521 1.365 0 1.886s1.365 0.521 1.886 0l-1.886-1.886zM11.057 8.943l8 8 1.886-1.886-8-8-1.886 1.886zM19.057 15.057l-8 8 1.886 1.886 8-8-1.886-1.886z"></path>
</symbol>
<symbol id="icon-chevron-up" viewBox="0 0 32 32">
<path d="M8.943 20.943c-0.521 0.521-1.365 0.521-1.886 0s-0.521-1.365 0-1.886l1.886 1.886zM16 12l-0.943-0.943c0.521-0.521 1.365-0.521 1.886 0l-0.943 0.943zM24.943 19.057c0.521 0.521 0.521 1.365 0 1.886s-1.365 0.521-1.886 0l1.886-1.886zM7.057 19.057l8-8 1.886 1.886-8 8-1.886-1.886zM16.943 11.057l8 8-1.886 1.886-8-8 1.886-1.886z"></path>
</symbol>
<symbol id="icon-clock" viewBox="0 0 32 32">
<path d="M17.333 9.333c0-0.736-0.597-1.333-1.333-1.333s-1.333 0.597-1.333 1.333h2.667zM16 16h-1.333c0 0.354 0.141 0.693 0.391 0.943l0.943-0.943zM19.057 20.943c0.521 0.521 1.365 0.521 1.886 0s0.521-1.365 0-1.886l-1.886 1.886zM26.667 16c0 5.891-4.776 10.667-10.667 10.667v2.667c7.364 0 13.333-5.97 13.333-13.333h-2.667zM16 26.667c-5.891 0-10.667-4.776-10.667-10.667h-2.667c0 7.364 5.97 13.333 13.333 13.333v-2.667zM5.333 16c0-5.891 4.776-10.667 10.667-10.667v-2.667c-7.364 0-13.333 5.97-13.333 13.333h2.667zM16 5.333c5.891 0 10.667 4.776 10.667 10.667h2.667c0-7.364-5.97-13.333-13.333-13.333v2.667zM14.667 9.333v6.667h2.667v-6.667h-2.667zM15.057 16.943l4 4 1.886-1.886-4-4-1.886 1.886z"></path>
</symbol>
<symbol id="icon-close" viewBox="0 0 32 32">
<path d="M24.943 8.943c0.521-0.521 0.521-1.365 0-1.886s-1.365-0.521-1.886 0l1.886 1.886zM7.057 23.057c-0.521 0.521-0.521 1.365 0 1.886s1.365 0.521 1.886 0l-1.886-1.886zM8.943 7.057c-0.521-0.521-1.365-0.521-1.886 0s-0.521 1.365 0 1.886l1.886-1.886zM23.057 24.943c0.521 0.521 1.365 0.521 1.886 0s0.521-1.365 0-1.886l-1.886 1.886zM23.057 7.057l-16 16 1.886 1.886 16-16-1.886-1.886zM7.057 8.943l16 16 1.886-1.886-16-16-1.886 1.886z"></path>
</symbol>
<symbol id="icon-currency-dollar" viewBox="0 0 32 32">
<path d="M21.009 11.11c0.245 0.694 1.006 1.059 1.701 0.814s1.059-1.006 0.814-1.701l-2.515 0.886zM18.667 8l0.057-1.332c-0.019-0.001-0.038-0.001-0.057-0.001v1.333zM13.333 16v0zM18.667 24v0zM13.333 24l-0.058 1.332c0.019 0.001 0.038 0.001 0.058 0.001v-1.333zM10.991 20.89c-0.245-0.695-1.006-1.059-1.701-0.814s-1.059 1.006-0.814 1.701l2.515-0.886zM17.333 4c0-0.736-0.597-1.333-1.333-1.333s-1.333 0.597-1.333 1.333h2.667zM14.667 8c0 0.736 0.597 1.333 1.333 1.333s1.333-0.597 1.333-1.333h-2.667zM17.333 24c0-0.736-0.597-1.333-1.333-1.333s-1.333 0.597-1.333 1.333h2.667zM14.667 28c0 0.736 0.597 1.333 1.333 1.333s1.333-0.597 1.333-1.333h-2.667zM23.524 10.223c-0.354-1.004-1-1.879-1.855-2.513l-1.587 2.143c0.428 0.317 0.751 0.754 0.928 1.256l2.515-0.886zM21.669 7.711c-0.855-0.634-1.881-0.997-2.945-1.043l-0.115 2.664c0.532 0.023 1.045 0.205 1.472 0.521l1.587-2.143zM18.667 6.667h-5.333v2.667h5.333v-2.667zM13.333 6.667c-1.415 0-2.771 0.562-3.771 1.562l1.886 1.886c0.5-0.5 1.178-0.781 1.886-0.781v-2.667zM9.562 8.229c-1 1-1.562 2.357-1.562 3.771h2.667c0-0.707 0.281-1.386 0.781-1.886l-1.886-1.886zM8 12c0 1.415 0.562 2.771 1.562 3.771l1.886-1.886c-0.5-0.5-0.781-1.178-0.781-1.886h-2.667zM9.562 15.771c1 1 2.357 1.562 3.771 1.562v-2.667c-0.707 0-1.386-0.281-1.886-0.781l-1.886 1.886zM13.333 17.333h5.333v-2.667h-5.333v2.667zM18.667 17.333c0.707 0 1.385 0.281 1.886 0.781l1.886-1.886c-1-1-2.357-1.562-3.771-1.562v2.667zM20.552 18.114c0.5 0.5 0.781 1.178 0.781 1.886h2.667c0-1.415-0.562-2.771-1.562-3.771l-1.886 1.886zM21.333 20c0 0.707-0.281 1.385-0.781 1.886l1.886 1.886c1-1 1.562-2.357 1.562-3.771h-2.667zM20.552 21.886c-0.5 0.5-1.178 0.781-1.886 0.781v2.667c1.415 0 2.771-0.562 3.771-1.562l-1.886-1.886zM18.667 22.667h-5.333v2.667h5.333v-2.667zM13.391 22.668c-0.532-0.023-1.044-0.205-1.472-0.521l-1.587 2.143c0.855 0.634 1.881 0.997 2.944 1.043l0.115-2.664zM11.919 22.147c-0.428-0.317-0.751-0.754-0.928-1.256l-2.515 0.886c0.354 1.004 1 1.879 1.856 2.513l1.587-2.143zM14.667 4v4h2.667v-4h-2.667zM14.667 24v4h2.667v-4h-2.667z"></path>
</symbol>
<symbol id="icon-current-location" viewBox="0 0 32 32">
<path d="M17.333 2.667c0-0.736-0.597-1.333-1.333-1.333s-1.333 0.597-1.333 1.333h2.667zM14.667 29.333c0 0.736 0.597 1.333 1.333 1.333s1.333-0.597 1.333-1.333h-2.667zM29.333 17.333c0.736 0 1.333-0.597 1.333-1.333s-0.597-1.333-1.333-1.333v2.667zM2.667 14.667c-0.736 0-1.333 0.597-1.333 1.333s0.597 1.333 1.333 1.333v-2.667zM18.667 16c0 1.473-1.194 2.667-2.667 2.667v2.667c2.945 0 5.333-2.388 5.333-5.333h-2.667zM16 18.667c-1.473 0-2.667-1.194-2.667-2.667h-2.667c0 2.945 2.388 5.333 5.333 5.333v-2.667zM13.333 16c0-1.473 1.194-2.667 2.667-2.667v-2.667c-2.946 0-5.333 2.388-5.333 5.333h2.667zM16 13.333c1.473 0 2.667 1.194 2.667 2.667h2.667c0-2.946-2.388-5.333-5.333-5.333v2.667zM25.333 16c0 5.155-4.179 9.333-9.333 9.333v2.667c6.627 0 12-5.373 12-12h-2.667zM16 25.333c-5.155 0-9.333-4.179-9.333-9.333h-2.667c0 6.627 5.373 12 12 12v-2.667zM6.667 16c0-5.155 4.179-9.333 9.333-9.333v-2.667c-6.627 0-12 5.373-12 12h2.667zM16 6.667c5.155 0 9.333 4.179 9.333 9.333h2.667c0-6.627-5.373-12-12-12v2.667zM14.667 2.667v2.667h2.667v-2.667h-2.667zM14.667 26.667v2.667h2.667v-2.667h-2.667zM26.667 17.333h2.667v-2.667h-2.667v2.667zM2.667 17.333h2.667v-2.667h-2.667v2.667z"></path>
</symbol>
<symbol id="icon-dots" viewBox="0 0 32 32">
<path d="M6.667 16v2.667c1.473 0 2.667-1.194 2.667-2.667h-2.667zM6.667 16h-2.667c0 1.473 1.194 2.667 2.667 2.667v-2.667zM6.667 16v-2.667c-1.473 0-2.667 1.194-2.667 2.667h2.667zM6.667 16h2.667c0-1.473-1.194-2.667-2.667-2.667v2.667zM16 16v2.667c1.473 0 2.667-1.194 2.667-2.667h-2.667zM16 16h-2.667c0 1.473 1.194 2.667 2.667 2.667v-2.667zM16 16v-2.667c-1.473 0-2.667 1.194-2.667 2.667h2.667zM16 16h2.667c0-1.473-1.194-2.667-2.667-2.667v2.667zM25.333 16v2.667c1.473 0 2.667-1.194 2.667-2.667h-2.667zM25.333 16h-2.667c0 1.473 1.194 2.667 2.667 2.667v-2.667zM25.333 16v-2.667c-1.473 0-2.667 1.194-2.667 2.667h2.667zM25.333 16h2.667c0-1.473-1.194-2.667-2.667-2.667v2.667z"></path>
</symbol>
<symbol id="icon-edit" viewBox="0 0 32 32">
<path d="M12 10.667c0.736 0 1.333-0.597 1.333-1.333s-0.597-1.333-1.333-1.333v2.667zM8 9.333v0zM5.333 12v0zM5.333 24v0zM24 20c0-0.736-0.597-1.333-1.333-1.333s-1.333 0.597-1.333 1.333h2.667zM12 20h-1.333c0 0.736 0.597 1.333 1.333 1.333v-1.333zM16 20v1.333c0.354 0 0.693-0.141 0.943-0.391l-0.943-0.943zM27.333 8.667v0zM28.162 6.667v0zM25.333 3.838v0zM23.333 4.667v0zM12 16l-0.943-0.943c-0.25 0.25-0.391 0.589-0.391 0.943h1.333zM22.276 5.724c-0.521-0.521-1.365-0.521-1.886 0s-0.521 1.365 0 1.886l1.886-1.886zM24.391 11.609c0.521 0.521 1.365 0.521 1.886 0s0.521-1.365 0-1.886l-1.886 1.886zM12 8h-4v2.667h4v-2.667zM8 8c-1.061 0-2.078 0.421-2.828 1.172l1.886 1.886c0.25-0.25 0.589-0.391 0.943-0.391v-2.667zM5.172 9.172c-0.75 0.75-1.172 1.768-1.172 2.828h2.667c0-0.354 0.14-0.693 0.391-0.943l-1.886-1.886zM4 12v12h2.667v-12h-2.667zM4 24c0 1.061 0.421 2.078 1.172 2.828l1.886-1.886c-0.25-0.25-0.391-0.589-0.391-0.943h-2.667zM5.172 26.828c0.75 0.75 1.768 1.172 2.828 1.172v-2.667c-0.354 0-0.693-0.141-0.943-0.391l-1.886 1.886zM8 28h12v-2.667h-12v2.667zM20 28c1.061 0 2.078-0.421 2.828-1.172l-1.886-1.886c-0.25 0.25-0.589 0.391-0.943 0.391v2.667zM22.828 26.828c0.75-0.75 1.172-1.767 1.172-2.828h-2.667c0 0.354-0.141 0.693-0.391 0.943l1.886 1.886zM24 24v-4h-2.667v4h2.667zM12 21.333h4v-2.667h-4v2.667zM16.943 20.943l11.333-11.333-1.886-1.886-11.333 11.333 1.886 1.886zM28.276 9.609c0.781-0.78 1.219-1.839 1.219-2.943h-2.667c0 0.397-0.157 0.777-0.438 1.057l1.886 1.886zM29.495 6.667c0-1.104-0.438-2.162-1.219-2.943l-1.886 1.886c0.28 0.28 0.438 0.661 0.438 1.057h2.667zM28.276 3.724c-0.781-0.78-1.839-1.219-2.943-1.219v2.667c0.397 0 0.777 0.158 1.057 0.438l1.886-1.886zM25.333 2.505c-1.104 0-2.162 0.438-2.943 1.219l1.886 1.886c0.28-0.28 0.661-0.438 1.057-0.438v-2.667zM22.391 3.724l-11.333 11.333 1.886 1.886 11.333-11.333-1.886-1.886zM10.667 16v4h2.667v-4h-2.667zM20.391 7.609l4 4 1.886-1.886-4-4-1.886 1.886z"></path>
</symbol>
<symbol id="icon-edit-big" viewBox="0 0 32 32">
<path d="M12 10c0.368 0 0.667-0.298 0.667-0.667s-0.298-0.667-0.667-0.667v1.333zM8 9.333v0zM5.333 12v0zM5.333 24v0zM23.333 20c0-0.368-0.298-0.667-0.667-0.667s-0.667 0.298-0.667 0.667h1.333zM12 20h-0.667c0 0.368 0.298 0.667 0.667 0.667v-0.667zM16 20v0.667c0.177 0 0.346-0.070 0.471-0.195l-0.471-0.471zM27.333 8.667v0zM28.162 6.667v0zM25.333 3.838v0zM23.333 4.667v0zM12 16l-0.471-0.471c-0.125 0.125-0.195 0.295-0.195 0.471h0.667zM21.805 6.195c-0.26-0.26-0.682-0.26-0.943 0s-0.26 0.682 0 0.943l0.943-0.943zM24.862 11.138c0.26 0.26 0.682 0.26 0.943 0s0.26-0.682 0-0.943l-0.943 0.943zM12 8.667h-4v1.333h4v-1.333zM8 8.667c-0.884 0-1.732 0.351-2.357 0.976l0.943 0.943c0.375-0.375 0.884-0.586 1.414-0.586v-1.333zM5.643 9.643c-0.625 0.625-0.976 1.473-0.976 2.357h1.333c0-0.53 0.211-1.039 0.586-1.414l-0.943-0.943zM4.667 12v12h1.333v-12h-1.333zM4.667 24c0 0.884 0.351 1.732 0.976 2.357l0.943-0.943c-0.375-0.375-0.586-0.884-0.586-1.414h-1.333zM5.643 26.357c0.625 0.625 1.473 0.976 2.357 0.976v-1.333c-0.53 0-1.039-0.211-1.414-0.586l-0.943 0.943zM8 27.333h12v-1.333h-12v1.333zM20 27.333c0.884 0 1.732-0.351 2.357-0.976l-0.943-0.943c-0.375 0.375-0.884 0.586-1.414 0.586v1.333zM22.357 26.357c0.625-0.625 0.976-1.473 0.976-2.357h-1.333c0 0.53-0.211 1.039-0.586 1.414l0.943 0.943zM23.333 24v-4h-1.333v4h1.333zM12 20.667h4v-1.333h-4v1.333zM16.471 20.471l11.333-11.333-0.943-0.943-11.333 11.333 0.943 0.943zM27.805 9.138c0.655-0.655 1.024-1.544 1.024-2.471h-1.333c0 0.573-0.228 1.123-0.633 1.529l0.943 0.943zM28.828 6.667c0-0.927-0.368-1.816-1.024-2.471l-0.943 0.943c0.405 0.405 0.633 0.955 0.633 1.529h1.333zM27.805 4.195c-0.655-0.655-1.544-1.024-2.471-1.024v1.333c0.573 0 1.123 0.228 1.529 0.633l0.943-0.943zM25.333 3.172c-0.927 0-1.816 0.368-2.471 1.024l0.943 0.943c0.405-0.405 0.955-0.633 1.529-0.633v-1.333zM22.862 4.195l-11.333 11.333 0.943 0.943 11.333-11.333-0.943-0.943zM11.333 16v4h1.333v-4h-1.333zM20.862 7.138l4 4 0.943-0.943-4-4-0.943 0.943z"></path>
</symbol>
<symbol id="icon-favorites-default" viewBox="0 0 32 32">
<path d="M16 23.667l0.622-1.18c-0.389-0.205-0.853-0.205-1.242-0.001l0.621 1.18zM7.771 27.993l-1.314-0.225c-0.086 0.5 0.12 1.006 0.53 1.304s0.955 0.338 1.404 0.101l-0.62-1.18zM9.343 18.829l1.314 0.225c0.074-0.433-0.069-0.875-0.384-1.181l-0.93 0.955zM2.676 12.34l-0.191-1.32c-0.503 0.073-0.92 0.425-1.077 0.908s-0.026 1.013 0.338 1.367l0.93-0.955zM11.876 11.007l0.191 1.32c0.434-0.063 0.81-0.336 1.004-0.729l-1.196-0.59zM15.991 2.669l1.196-0.59c-0.225-0.455-0.688-0.743-1.196-0.743s-0.971 0.288-1.196 0.743l1.196 0.59zM20.105 11.007l-1.196 0.59c0.194 0.394 0.57 0.666 1.004 0.729l0.191-1.32zM29.305 12.34l0.93 0.955c0.364-0.354 0.495-0.884 0.338-1.367s-0.574-0.835-1.077-0.908l-0.191 1.32zM22.639 18.829l-0.93-0.955c-0.315 0.306-0.458 0.748-0.384 1.181l1.314-0.225zM24.211 27.993l-0.622 1.179c0.449 0.237 0.994 0.198 1.405-0.101s0.617-0.804 0.531-1.304l-1.314 0.225zM15.379 22.486l-8.229 4.327 1.241 2.36 8.229-4.327-1.241-2.36zM9.085 28.219l1.572-9.164-2.628-0.451-1.572 9.164 2.628 0.451zM10.273 17.874l-6.667-6.489-1.86 1.911 6.667 6.489 1.86-1.911zM2.867 13.659l9.2-1.333-0.382-2.639-9.2 1.333 0.382 2.639zM13.072 11.597l4.115-8.337-2.391-1.18-4.115 8.337 2.391 1.18zM14.795 3.259l4.115 8.337 2.391-1.18-4.115-8.337-2.391 1.18zM19.914 12.326l9.2 1.333 0.382-2.639-9.2-1.333-0.382 2.639zM28.375 11.384l-6.667 6.489 1.86 1.911 6.667-6.489-1.86-1.911zM21.325 19.055l1.572 9.164 2.628-0.451-1.572-9.164-2.628 0.451zM24.832 26.814l-8.211-4.327-1.243 2.359 8.211 4.327 1.243-2.359z"></path>
</symbol>
<symbol id="icon-favorites-hover" viewBox="0 0 32 32">
<path fill="#fff" style="fill: var(--color1, #fff)" d="M16 23.667l-8.229 4.327 1.572-9.164-6.667-6.489 9.2-1.333 4.115-8.337 4.115 8.337 9.2 1.333-6.667 6.489 1.572 9.164-8.211-4.327z"></path>
<path fill="#ff715b" style="fill: var(--color2, #ff715b)" d="M16 23.667l0.622-1.18c-0.389-0.205-0.853-0.205-1.242-0.001l0.621 1.18zM7.771 27.993l-1.314-0.225c-0.086 0.5 0.12 1.006 0.53 1.304s0.955 0.338 1.404 0.101l-0.62-1.18zM9.343 18.829l1.314 0.225c0.074-0.433-0.069-0.875-0.384-1.181l-0.93 0.955zM2.676 12.34l-0.191-1.32c-0.503 0.073-0.92 0.425-1.077 0.908s-0.026 1.013 0.338 1.367l0.93-0.955zM11.876 11.007l0.191 1.32c0.434-0.063 0.81-0.336 1.004-0.729l-1.196-0.59zM15.991 2.669l1.196-0.59c-0.225-0.455-0.688-0.743-1.196-0.743s-0.971 0.288-1.196 0.743l1.196 0.59zM20.105 11.007l-1.196 0.59c0.194 0.394 0.57 0.666 1.004 0.729l0.191-1.32zM29.305 12.34l0.93 0.955c0.364-0.354 0.495-0.884 0.338-1.367s-0.574-0.835-1.077-0.908l-0.191 1.32zM22.639 18.829l-0.93-0.955c-0.315 0.306-0.458 0.748-0.384 1.181l1.314-0.225zM24.211 27.993l-0.622 1.179c0.449 0.237 0.994 0.198 1.405-0.101s0.617-0.804 0.531-1.304l-1.314 0.225zM15.379 22.486l-8.229 4.327 1.241 2.36 8.229-4.327-1.241-2.36zM9.085 28.219l1.572-9.164-2.628-0.451-1.572 9.164 2.628 0.451zM10.273 17.874l-6.667-6.489-1.86 1.911 6.667 6.489 1.86-1.911zM2.867 13.659l9.2-1.333-0.382-2.639-9.2 1.333 0.382 2.639zM13.072 11.597l4.115-8.337-2.391-1.18-4.115 8.337 2.391 1.18zM14.795 3.259l4.115 8.337 2.391-1.18-4.115-8.337-2.391 1.18zM19.914 12.326l9.2 1.333 0.382-2.639-9.2-1.333-0.382 2.639zM28.375 11.384l-6.667 6.489 1.86 1.911 6.667-6.489-1.86-1.911zM21.325 19.055l1.572 9.164 2.628-0.451-1.572-9.164-2.628 0.451zM24.832 26.814l-8.211-4.327-1.243 2.359 8.211 4.327 1.243-2.359z"></path>
</symbol>
<symbol id="icon-favorites-selected" viewBox="0 0 32 32">
<path fill="#ff715b" style="fill: var(--color2, #ff715b)" d="M16 23.667l-8.229 4.327 1.572-9.164-6.667-6.489 9.2-1.333 4.115-8.337 4.115 8.337 9.2 1.333-6.667 6.489 1.572 9.164-8.211-4.327z"></path>
<path fill="#ff715b" style="fill: var(--color2, #ff715b)" d="M16 23.667l0.622-1.18c-0.389-0.205-0.853-0.205-1.242-0.001l0.621 1.18zM7.771 27.993l-1.314-0.225c-0.086 0.5 0.12 1.006 0.53 1.304s0.955 0.338 1.404 0.101l-0.62-1.18zM9.343 18.829l1.314 0.225c0.074-0.433-0.069-0.875-0.384-1.181l-0.93 0.955zM2.676 12.34l-0.191-1.32c-0.503 0.073-0.92 0.425-1.077 0.908s-0.026 1.013 0.338 1.367l0.93-0.955zM11.876 11.007l0.191 1.32c0.434-0.063 0.81-0.336 1.004-0.729l-1.196-0.59zM15.991 2.669l1.196-0.59c-0.225-0.455-0.688-0.743-1.196-0.743s-0.971 0.288-1.196 0.743l1.196 0.59zM20.105 11.007l-1.196 0.59c0.194 0.394 0.57 0.666 1.004 0.729l0.191-1.32zM29.305 12.34l0.93 0.955c0.364-0.354 0.495-0.884 0.338-1.367s-0.574-0.835-1.077-0.908l-0.191 1.32zM22.639 18.829l-0.93-0.955c-0.315 0.306-0.458 0.748-0.384 1.181l1.314-0.225zM24.211 27.993l-0.622 1.179c0.449 0.237 0.994 0.198 1.405-0.101s0.617-0.804 0.531-1.304l-1.314 0.225zM15.379 22.486l-8.229 4.327 1.241 2.36 8.229-4.327-1.241-2.36zM9.085 28.219l1.572-9.164-2.628-0.451-1.572 9.164 2.628 0.451zM10.273 17.874l-6.667-6.489-1.86 1.911 6.667 6.489 1.86-1.911zM2.867 13.659l9.2-1.333-0.382-2.639-9.2 1.333 0.382 2.639zM13.072 11.597l4.115-8.337-2.391-1.18-4.115 8.337 2.391 1.18zM14.795 3.259l4.115 8.337 2.391-1.18-4.115-8.337-2.391 1.18zM19.914 12.326l9.2 1.333 0.382-2.639-9.2-1.333-0.382 2.639zM28.375 11.384l-6.667 6.489 1.86 1.911 6.667-6.489-1.86-1.911zM21.325 19.055l1.572 9.164 2.628-0.451-1.572-9.164-2.628 0.451zM24.832 26.814l-8.211-4.327-1.243 2.359 8.211 4.327 1.243-2.359z"></path>
</symbol>
<symbol id="icon-file_invoice" viewBox="0 0 32 32">
<path d="M18.667 4l0.943-0.943c-0.25-0.25-0.589-0.391-0.943-0.391v1.333zM25.333 10.667h1.333c0-0.354-0.141-0.693-0.391-0.943l-0.943 0.943zM6.667 25.333v0zM9.333 4v0zM12 8c-0.736 0-1.333 0.597-1.333 1.333s0.597 1.333 1.333 1.333v-2.667zM13.333 10.667c0.736 0 1.333-0.597 1.333-1.333s-0.597-1.333-1.333-1.333v2.667zM12 16c-0.736 0-1.333 0.597-1.333 1.333s0.597 1.333 1.333 1.333v-2.667zM20 18.667c0.736 0 1.333-0.597 1.333-1.333s-0.597-1.333-1.333-1.333v2.667zM17.333 21.333c-0.736 0-1.333 0.597-1.333 1.333s0.597 1.333 1.333 1.333v-2.667zM20 24c0.736 0 1.333-0.597 1.333-1.333s-0.597-1.333-1.333-1.333v2.667zM17.333 4v5.333h2.667v-5.333h-2.667zM17.333 9.333c0 0.707 0.281 1.386 0.781 1.886l1.886-1.886h-2.667zM18.114 11.219c0.5 0.5 1.178 0.781 1.886 0.781v-2.667l-1.886 1.886zM20 12h5.333v-2.667h-5.333v2.667zM22.667 26.667h-13.333v2.667h13.333v-2.667zM9.333 26.667c-0.354 0-0.693-0.141-0.943-0.391l-1.886 1.886c0.75 0.75 1.768 1.172 2.828 1.172v-2.667zM8.391 26.276c-0.25-0.25-0.391-0.589-0.391-0.943h-2.667c0 1.061 0.421 2.078 1.172 2.828l1.886-1.886zM8 25.333v-18.667h-2.667v18.667h2.667zM8 6.667c0-0.354 0.14-0.693 0.391-0.943l-1.886-1.886c-0.75 0.75-1.172 1.768-1.172 2.828h2.667zM8.391 5.724c0.25-0.25 0.589-0.391 0.943-0.391v-2.667c-1.061 0-2.078 0.421-2.828 1.172l1.886 1.886zM9.333 5.333h9.333v-2.667h-9.333v2.667zM17.724 4.943l6.667 6.667 1.886-1.886-6.667-6.667-1.886 1.886zM24 10.667v14.667h2.667v-14.667h-2.667zM24 25.333c0 0.354-0.141 0.693-0.391 0.943l1.886 1.886c0.75-0.75 1.172-1.767 1.172-2.828h-2.667zM23.609 26.276c-0.25 0.25-0.589 0.391-0.943 0.391v2.667c1.061 0 2.078-0.421 2.828-1.172l-1.886-1.886zM12 10.667h1.333v-2.667h-1.333v2.667zM12 18.667h8v-2.667h-8v2.667zM17.333 24h2.667v-2.667h-2.667v2.667z"></path>
</symbol>
<symbol id="icon-filters" viewBox="0 0 32 32">
<path d="M9.333 9.333c0 1.473-1.194 2.667-2.667 2.667v2.667c2.946 0 5.333-2.388 5.333-5.333h-2.667zM6.667 12c-1.473 0-2.667-1.194-2.667-2.667h-2.667c0 2.946 2.388 5.333 5.333 5.333v-2.667zM4 9.333c0-1.473 1.194-2.667 2.667-2.667v-2.667c-2.946 0-5.333 2.388-5.333 5.333h2.667zM6.667 6.667c1.473 0 2.667 1.194 2.667 2.667h2.667c0-2.946-2.388-5.333-5.333-5.333v2.667z"></path>
<path d="M21.333 22.667c0 1.473 1.194 2.667 2.667 2.667v2.667c-2.945 0-5.333-2.388-5.333-5.333h2.667zM24 25.333c1.473 0 2.667-1.194 2.667-2.667h2.667c0 2.945-2.388 5.333-5.333 5.333v-2.667zM26.667 22.667c0-1.473-1.194-2.667-2.667-2.667v-2.667c2.945 0 5.333 2.388 5.333 5.333h-2.667zM24 20c-1.473 0-2.667 1.194-2.667 2.667h-2.667c0-2.945 2.388-5.333 5.333-5.333v2.667z"></path>
<path fill="none" stroke="#8b929a" style="stroke: var(--color3, #8b929a)" stroke-linejoin="miter" stroke-linecap="round" stroke-miterlimit="4" stroke-width="2.6667" d="M16 9.333h12"></path>
<path fill="none" stroke="#8b929a" style="stroke: var(--color3, #8b929a)" stroke-linejoin="miter" stroke-linecap="round" stroke-miterlimit="4" stroke-width="2.6667" d="M14.667 22.667h-12"></path>
</symbol>
<symbol id="icon-info-circle" viewBox="0 0 32 32">
<path d="M16 9.333c-0.736 0-1.333 0.597-1.333 1.333s0.597 1.333 1.333 1.333v-2.667zM16.013 12c0.736 0 1.333-0.597 1.333-1.333s-0.597-1.333-1.333-1.333v2.667zM14.667 14.667c-0.736 0-1.333 0.597-1.333 1.333s0.597 1.333 1.333 1.333v-2.667zM16 16h1.333c0-0.736-0.597-1.333-1.333-1.333v1.333zM16 21.333h-1.333c0 0.736 0.597 1.333 1.333 1.333v-1.333zM17.333 22.667c0.736 0 1.333-0.597 1.333-1.333s-0.597-1.333-1.333-1.333v2.667zM26.667 16c0 5.891-4.776 10.667-10.667 10.667v2.667c7.364 0 13.333-5.97 13.333-13.333h-2.667zM16 26.667c-5.891 0-10.667-4.776-10.667-10.667h-2.667c0 7.364 5.97 13.333 13.333 13.333v-2.667zM5.333 16c0-5.891 4.776-10.667 10.667-10.667v-2.667c-7.364 0-13.333 5.97-13.333 13.333h2.667zM16 5.333c5.891 0 10.667 4.776 10.667 10.667h2.667c0-7.364-5.97-13.333-13.333-13.333v2.667zM16 12h0.013v-2.667h-0.013v2.667zM14.667 17.333h1.333v-2.667h-1.333v2.667zM14.667 16v5.333h2.667v-5.333h-2.667zM16 22.667h1.333v-2.667h-1.333v2.667z"></path>
</symbol>
<symbol id="icon-keyboard-hide" viewBox="0 0 32 32">
<path stroke-linejoin="round" stroke-linecap="round" stroke-miterlimit="4" stroke-width="2.6667" d="M8 17.333v0.013M24 17.333v0.013M13.333 17.333h5.333M13.333 28l2.667 2.667 2.667-2.667M5.333 6.667h21.333c1.473 0 2.667 1.194 2.667 2.667v10.667c0 1.473-1.194 2.667-2.667 2.667h-21.333c-1.473 0-2.667-1.194-2.667-2.667v-10.667c0-1.473 1.194-2.667 2.667-2.667z"></path>
</symbol>
<symbol id="icon-logout" viewBox="0 0 32 32">
<path d="M17.333 10.667c0 0.736 0.597 1.333 1.333 1.333s1.333-0.597 1.333-1.333h-2.667zM16 5.333v0zM6.667 5.333v0zM4 8v0zM4 24v0zM20 21.333c0-0.736-0.597-1.333-1.333-1.333s-1.333 0.597-1.333 1.333h2.667zM9.333 14.667c-0.736 0-1.333 0.597-1.333 1.333s0.597 1.333 1.333 1.333v-2.667zM28 16l0.943 0.943c0.521-0.521 0.521-1.365 0-1.886l-0.943 0.943zM24.943 11.057c-0.521-0.521-1.365-0.521-1.886 0s-0.521 1.365 0 1.886l1.886-1.886zM23.057 19.057c-0.521 0.521-0.521 1.365 0 1.886s1.365 0.521 1.886 0l-1.886-1.886zM20 10.667v-2.667h-2.667v2.667h2.667zM20 8c0-1.061-0.421-2.078-1.172-2.828l-1.886 1.886c0.25 0.25 0.391 0.589 0.391 0.943h2.667zM18.828 5.172c-0.75-0.75-1.768-1.172-2.828-1.172v2.667c0.354 0 0.693 0.14 0.943 0.391l1.886-1.886zM16 4h-9.333v2.667h9.333v-2.667zM6.667 4c-1.061 0-2.078 0.421-2.828 1.172l1.886 1.886c0.25-0.25 0.589-0.391 0.943-0.391v-2.667zM3.838 5.172c-0.75 0.75-1.172 1.768-1.172 2.828h2.667c0-0.354 0.14-0.693 0.391-0.943l-1.886-1.886zM2.667 8v16h2.667v-16h-2.667zM2.667 24c0 1.061 0.421 2.078 1.172 2.828l1.886-1.886c-0.25-0.25-0.391-0.589-0.391-0.943h-2.667zM3.838 26.828c0.75 0.75 1.768 1.172 2.828 1.172v-2.667c-0.354 0-0.693-0.141-0.943-0.391l-1.886 1.886zM6.667 28h9.333v-2.667h-9.333v2.667zM16 28c1.061 0 2.078-0.421 2.828-1.172l-1.886-1.886c-0.25 0.25-0.589 0.391-0.943 0.391v2.667zM18.828 26.828c0.75-0.75 1.172-1.767 1.172-2.828h-2.667c0 0.354-0.141 0.693-0.391 0.943l1.886 1.886zM20 24v-2.667h-2.667v2.667h2.667zM9.333 17.333h18.667v-2.667h-18.667v2.667zM28.943 15.057l-4-4-1.886 1.886 4 4 1.886-1.886zM24.943 20.943l4-4-1.886-1.886-4 4 1.886 1.886z"></path>
</symbol>
<symbol id="icon-map-pin" viewBox="0 0 32 32">
<path d="M23.543 22.209v0zM17.885 27.867v0zM14.116 27.867v0zM8.457 22.209v0zM18.667 14.667c0 1.473-1.194 2.667-2.667 2.667v2.667c2.945 0 5.333-2.388 5.333-5.333h-2.667zM16 17.333c-1.473 0-2.667-1.194-2.667-2.667h-2.667c0 2.945 2.388 5.333 5.333 5.333v-2.667zM13.333 14.667c0-1.473 1.194-2.667 2.667-2.667v-2.667c-2.946 0-5.333 2.388-5.333 5.333h2.667zM16 12c1.473 0 2.667 1.194 2.667 2.667h2.667c0-2.946-2.388-5.333-5.333-5.333v2.667zM22.6 21.266l-5.657 5.657 1.886 1.886 5.657-5.657-1.886-1.886zM16.943 26.923c-0.25 0.25-0.589 0.39-0.942 0.39v2.667c1.060 0 2.077-0.421 2.827-1.17l-1.885-1.887zM16.001 27.313c-0.353 0-0.692-0.14-0.942-0.39l-1.885 1.887c0.75 0.749 1.767 1.17 2.827 1.17v-2.667zM15.059 26.924l-5.659-5.657-1.885 1.886 5.659 5.657 1.885-1.886zM9.4 21.267c-1.305-1.305-2.194-2.968-2.554-4.779l-2.615 0.52c0.463 2.328 1.606 4.466 3.284 6.144l1.886-1.885zM6.846 16.488c-0.36-1.81-0.175-3.687 0.531-5.392l-2.464-1.021c-0.908 2.193-1.146 4.605-0.683 6.933l2.615-0.52zM7.377 11.095c0.706-1.705 1.903-3.163 3.438-4.189l-1.482-2.217c-1.973 1.319-3.511 3.193-4.42 5.385l2.464 1.021zM10.815 6.907c1.535-1.026 3.339-1.573 5.185-1.573v-2.667c-2.373 0-4.693 0.704-6.667 2.022l1.482 2.217zM16 5.334c1.846 0 3.65 0.547 5.185 1.573l1.481-2.217c-1.973-1.319-4.293-2.022-6.667-2.022v2.667zM21.185 6.907c1.535 1.026 2.731 2.483 3.437 4.189l2.464-1.021c-0.908-2.193-2.446-4.067-4.42-5.385l-1.481 2.217zM24.623 11.095c0.707 1.705 0.891 3.582 0.531 5.392l2.615 0.52c0.463-2.328 0.225-4.741-0.683-6.933l-2.464 1.021zM25.154 16.488c-0.36 1.811-1.249 3.474-2.554 4.779l1.886 1.885c1.678-1.678 2.821-3.816 3.284-6.144l-2.615-0.52z"></path>
</symbol>
<symbol id="icon-messages" viewBox="0 0 32 32">
<path d="M28 18.667l-0.943 0.943c0.381 0.381 0.955 0.495 1.453 0.289s0.823-0.693 0.823-1.232h-1.333zM24 14.667l0.943-0.943c-0.25-0.25-0.589-0.391-0.943-0.391v1.333zM14.667 4v0zM26.667 4v0zM20 20c0-0.736-0.597-1.333-1.333-1.333s-1.333 0.597-1.333 1.333h2.667zM8 24v-1.333c-0.354 0-0.693 0.141-0.943 0.391l0.943 0.943zM4 28h-1.333c0 0.539 0.325 1.025 0.823 1.232s1.072 0.092 1.453-0.289l-0.943-0.943zM8 14.667c0.736 0 1.333-0.597 1.333-1.333s-0.597-1.333-1.333-1.333v2.667zM28.943 17.724l-4-4-1.886 1.886 4 4 1.886-1.886zM24 13.333h-9.333v2.667h9.333v-2.667zM14.667 13.333l-1.886 1.886c0.5 0.5 1.178 0.781 1.886 0.781v-2.667zM14.667 13.333h-2.667c0 0.707 0.281 1.385 0.781 1.886l1.886-1.886zM14.667 13.333v-8h-2.667v8h2.667zM14.667 5.333v0l-1.886-1.886c-0.5 0.5-0.781 1.178-0.781 1.886h2.667zM14.667 5.333v0-2.667c-0.707 0-1.386 0.281-1.886 0.781l1.886 1.886zM14.667 5.333h12v-2.667h-12v2.667zM26.667 5.333v0l1.886-1.886c-0.5-0.5-1.178-0.781-1.886-0.781v2.667zM26.667 5.333v0h2.667c0-0.707-0.281-1.386-0.781-1.886l-1.886 1.886zM26.667 5.333v13.333h2.667v-13.333h-2.667zM17.333 20v2.667h2.667v-2.667h-2.667zM17.333 22.667v0l1.886 1.886c0.5-0.5 0.781-1.178 0.781-1.886h-2.667zM17.333 22.667v0 2.667c0.707 0 1.385-0.281 1.886-0.781l-1.886-1.886zM17.333 22.667h-9.333v2.667h9.333v-2.667zM7.057 23.057l-4 4 1.886 1.886 4-4-1.886-1.886zM5.333 28v-13.333h-2.667v13.333h2.667zM5.333 14.667v0l-1.886-1.886c-0.5 0.5-0.781 1.178-0.781 1.886h2.667zM5.333 14.667v0-2.667c-0.707 0-1.386 0.281-1.886 0.781l1.886 1.886zM5.333 14.667h2.667v-2.667h-2.667v2.667z"></path>
</symbol>
<symbol id="icon-messages-big" viewBox="0 0 32 32">
<path d="M27.333 18.519l-0.471 0.471c0.191 0.191 0.477 0.248 0.727 0.145s0.412-0.346 0.412-0.616h-0.667zM23.556 14.741l0.471-0.471c-0.125-0.125-0.295-0.195-0.471-0.195v0.667zM14.741 4.667v0zM26.074 4.667v0zM19.185 17.926c0-0.368-0.298-0.667-0.667-0.667s-0.667 0.298-0.667 0.667h1.333zM8.444 23.556v-0.667c-0.177 0-0.346 0.070-0.471 0.195l0.471 0.471zM4.667 27.333h-0.667c0 0.27 0.162 0.513 0.412 0.616s0.536 0.046 0.727-0.145l-0.471-0.471zM10.296 14.148c0.368 0 0.667-0.298 0.667-0.667s-0.298-0.667-0.667-0.667v1.333zM27.805 18.047l-3.778-3.778-0.943 0.943 3.778 3.778 0.943-0.943zM23.556 14.074h-8.815v1.333h8.815v-1.333zM14.741 14.074c-0.157 0-0.308-0.062-0.419-0.174l-0.943 0.943c0.361 0.361 0.851 0.564 1.362 0.564v-1.333zM14.322 13.901c-0.111-0.111-0.174-0.262-0.174-0.419h-1.333c0 0.511 0.203 1.001 0.564 1.362l0.943-0.943zM14.148 13.481v-7.556h-1.333v7.556h1.333zM14.148 5.926c0-0.157 0.062-0.308 0.174-0.419l-0.943-0.943c-0.361 0.361-0.564 0.851-0.564 1.362h1.333zM14.322 5.507c0.111-0.111 0.262-0.174 0.419-0.174v-1.333c-0.511 0-1.001 0.203-1.362 0.564l0.943 0.943zM14.741 5.333h11.333v-1.333h-11.333v1.333zM26.074 5.333c0.157 0 0.308 0.062 0.419 0.174l0.943-0.943c-0.361-0.361-0.851-0.564-1.362-0.564v1.333zM26.493 5.507c0.111 0.111 0.174 0.262 0.174 0.419h1.333c0-0.511-0.203-1.001-0.564-1.362l-0.943 0.943zM26.667 5.926v12.593h1.333v-12.593h-1.333zM17.852 17.926v4.37h1.333v-4.37h-1.333zM17.852 22.296c0 0.157-0.062 0.308-0.174 0.419l0.943 0.943c0.361-0.361 0.564-0.851 0.564-1.362h-1.333zM17.678 22.715c-0.111 0.111-0.262 0.174-0.419 0.174v1.333c0.511 0 1.001-0.203 1.362-0.564l-0.943-0.943zM17.259 22.889h-8.815v1.333h8.815v-1.333zM7.973 23.084l-3.778 3.778 0.943 0.943 3.778-3.778-0.943-0.943zM5.333 27.333v-12.593h-1.333v12.593h1.333zM5.333 14.741c0-0.157 0.062-0.308 0.174-0.419l-0.943-0.943c-0.361 0.361-0.564 0.851-0.564 1.362h1.333zM5.507 14.322c0.111-0.111 0.262-0.174 0.419-0.174v-1.333c-0.511 0-1.001 0.203-1.362 0.564l0.943 0.943zM5.926 14.148h4.37v-1.333h-4.37v1.333z"></path>
</symbol>
<symbol id="icon-music" viewBox="0 0 32 32">
<path d="M12 5.333v-1.333c-0.736 0-1.333 0.597-1.333 1.333h1.333zM25.333 5.333h1.333c0-0.736-0.597-1.333-1.333-1.333v1.333zM12 9.333c-0.736 0-1.333 0.597-1.333 1.333s0.597 1.333 1.333 1.333v-2.667zM25.333 12c0.736 0 1.333-0.597 1.333-1.333s-0.597-1.333-1.333-1.333v2.667zM10.667 22.667c0 1.473-1.194 2.667-2.667 2.667v2.667c2.946 0 5.333-2.388 5.333-5.333h-2.667zM8 25.333c-1.473 0-2.667-1.194-2.667-2.667h-2.667c0 2.945 2.388 5.333 5.333 5.333v-2.667zM5.333 22.667c0-1.473 1.194-2.667 2.667-2.667v-2.667c-2.946 0-5.333 2.388-5.333 5.333h2.667zM8 20c1.473 0 2.667 1.194 2.667 2.667h2.667c0-2.945-2.388-5.333-5.333-5.333v2.667zM24 22.667c0 1.473-1.194 2.667-2.667 2.667v2.667c2.945 0 5.333-2.388 5.333-5.333h-2.667zM21.333 25.333c-1.473 0-2.667-1.194-2.667-2.667h-2.667c0 2.945 2.388 5.333 5.333 5.333v-2.667zM18.667 22.667c0-1.473 1.194-2.667 2.667-2.667v-2.667c-2.945 0-5.333 2.388-5.333 5.333h2.667zM21.333 20c1.473 0 2.667 1.194 2.667 2.667h2.667c0-2.945-2.388-5.333-5.333-5.333v2.667zM13.333 22.667v-17.333h-2.667v17.333h2.667zM12 6.667h13.333v-2.667h-13.333v2.667zM24 5.333v17.333h2.667v-17.333h-2.667zM12 12h13.333v-2.667h-13.333v2.667z"></path>
</symbol>
<symbol id="icon-pencil" viewBox="0 0 32 32" fill="none">
<path stroke="#8b929a" stroke-linejoin="round" stroke-linecap="round" stroke-miterlimit="4" stroke-width="2.6667" d="M18 8.667l5.333 5.333M5.333 26.667h5.333l14-14c0.707-0.707 1.105-1.666 1.105-2.667s-0.397-1.959-1.105-2.667c-0.707-0.707-1.667-1.105-2.667-1.105s-1.959 0.397-2.667 1.105l-14 14v5.333z"></path>
</symbol>
<symbol id="icon-player-play" viewBox="0 0 32 32">
<path d="M9.333 5.333l0.699-1.136c-0.411-0.253-0.928-0.264-1.349-0.028s-0.683 0.681-0.683 1.164h1.333zM9.333 26.667h-1.333c0 0.483 0.261 0.928 0.683 1.164s0.938 0.225 1.349-0.028l-0.699-1.136zM26.667 16l0.699 1.136c0.394-0.243 0.635-0.673 0.635-1.136s-0.24-0.893-0.635-1.136l-0.699 1.136zM8 5.333v21.333h2.667v-21.333h-2.667zM10.032 27.802l17.333-10.667-1.398-2.271-17.333 10.667 1.398 2.271zM27.365 14.864l-17.333-10.667-1.398 2.271 17.333 10.667 1.398-2.271z"></path>
</symbol>
<symbol id="icon-plus" viewBox="0 0 32 32">
<path d="M17.333 6.667c0-0.736-0.597-1.333-1.333-1.333s-1.333 0.597-1.333 1.333h2.667zM14.667 25.333c0 0.736 0.597 1.333 1.333 1.333s1.333-0.597 1.333-1.333h-2.667zM6.667 14.667c-0.736 0-1.333 0.597-1.333 1.333s0.597 1.333 1.333 1.333v-2.667zM25.333 17.333c0.736 0 1.333-0.597 1.333-1.333s-0.597-1.333-1.333-1.333v2.667zM14.667 6.667v18.667h2.667v-18.667h-2.667zM6.667 17.333h18.667v-2.667h-18.667v2.667z"></path>
</symbol>
<symbol id="icon-search" viewBox="0 0 32 32">
<path d="M27.057 28.943c0.521 0.521 1.365 0.521 1.886 0s0.521-1.365 0-1.886l-1.886 1.886zM20.943 19.057c-0.521-0.521-1.365-0.521-1.886 0s-0.521 1.365 0 1.886l1.886-1.886zM21.333 13.333c0 4.418-3.582 8-8 8v2.667c5.891 0 10.667-4.776 10.667-10.667h-2.667zM13.333 21.333c-4.418 0-8-3.582-8-8h-2.667c0 5.891 4.776 10.667 10.667 10.667v-2.667zM5.333 13.333c0-4.418 3.582-8 8-8v-2.667c-5.891 0-10.667 4.776-10.667 10.667h2.667zM13.333 5.333c4.418 0 8 3.582 8 8h2.667c0-5.891-4.776-10.667-10.667-10.667v2.667zM28.943 27.057l-8-8-1.886 1.886 8 8 1.886-1.886z"></path>
</symbol>
<symbol id="icon-send" viewBox="0 0 32 32">
<path d="M28 4l1.254 0.453c0.175-0.486 0.054-1.030-0.311-1.396s-0.909-0.487-1.396-0.311l0.453 1.254zM19.333 28l1.212 0.555c0.015-0.034 0.029-0.068 0.042-0.103l-1.254-0.453zM18.667 28.428v0zM18 28l1.212-0.555c-0.006-0.014-0.013-0.027-0.020-0.041l-1.193 0.596zM4 14l0.596-1.193c-0.013-0.007-0.027-0.013-0.041-0.020l-0.555 1.212zM3.572 13.333v0zM4 12.667l-0.453-1.254c-0.035 0.013-0.069 0.027-0.103 0.042l0.555 1.212zM14.276 19.609l14.667-14.667-1.886-1.886-14.667 14.667 1.886 1.886zM26.746 3.547l-8.667 24 2.508 0.906 8.667-24-2.508-0.906zM18.121 27.445c0.048-0.104 0.125-0.193 0.221-0.255l1.44 2.244c0.333-0.214 0.598-0.519 0.763-0.878l-2.424-1.111zM18.343 27.189c0.097-0.062 0.209-0.095 0.324-0.095v2.667c0.396 0 0.783-0.114 1.116-0.327l-1.44-2.244zM18.667 27.095c0.115 0 0.227 0.033 0.324 0.095l-1.44 2.244c0.333 0.214 0.72 0.327 1.116 0.327v-2.667zM18.991 27.189c0.097 0.062 0.173 0.151 0.221 0.255l-2.424 1.111c0.165 0.36 0.43 0.665 0.763 0.878l1.44-2.244zM19.193 27.404l-4.667-9.333-2.385 1.193 4.667 9.333 2.385-1.193zM13.93 17.474l-9.333-4.667-1.193 2.385 9.333 4.667 1.193-2.385zM4.555 12.788c0.104 0.048 0.193 0.125 0.255 0.221l-2.244 1.44c0.214 0.333 0.519 0.598 0.878 0.763l1.111-2.424zM4.81 13.009c0.062 0.097 0.095 0.209 0.095 0.324h-2.667c0 0.396 0.114 0.783 0.327 1.116l2.244-1.44zM4.906 13.333c0 0.115-0.033 0.227-0.095 0.324l-2.244-1.44c-0.214 0.333-0.327 0.72-0.327 1.116h2.667zM4.81 13.657c-0.062 0.097-0.151 0.174-0.255 0.221l-1.111-2.424c-0.36 0.165-0.665 0.43-0.878 0.763l2.244 1.44zM4.453 13.921l24-8.667-0.906-2.508-24 8.667 0.906 2.508z"></path>
</symbol>
<symbol id="icon-star-big" viewBox="0 0 32 32">
<path d="M16 23.667l0.311-0.59c-0.194-0.102-0.427-0.102-0.621-0l0.31 0.59zM7.771 27.993l-0.657-0.113c-0.043 0.25 0.060 0.503 0.265 0.652s0.478 0.169 0.702 0.051l-0.31-0.59zM9.343 18.829l0.657 0.113c0.037-0.216-0.035-0.437-0.192-0.59l-0.465 0.478zM2.676 12.34l-0.096-0.66c-0.251 0.036-0.46 0.212-0.538 0.454s-0.013 0.507 0.169 0.684l0.465-0.478zM11.876 11.007l0.096 0.66c0.217-0.032 0.405-0.168 0.502-0.365l-0.598-0.295zM15.991 2.669l0.598-0.295c-0.112-0.228-0.344-0.372-0.598-0.372s-0.486 0.144-0.598 0.372l0.598 0.295zM20.105 11.007l-0.598 0.295c0.097 0.197 0.285 0.333 0.502 0.365l0.096-0.66zM29.305 12.34l0.465 0.478c0.182-0.177 0.247-0.442 0.169-0.684s-0.287-0.417-0.538-0.454l-0.096 0.66zM22.639 18.829l-0.465-0.478c-0.157 0.153-0.229 0.374-0.192 0.59l0.657-0.113zM24.211 27.993l-0.311 0.59c0.225 0.118 0.497 0.099 0.702-0.050s0.308-0.402 0.265-0.652l-0.657 0.113zM15.69 23.077l-8.229 4.327 0.62 1.18 8.229-4.327-0.62-1.18zM8.428 28.106l1.572-9.164-1.314-0.225-1.572 9.164 1.314 0.225zM9.808 18.352l-6.667-6.489-0.93 0.955 6.667 6.489 0.93-0.955zM2.772 13l9.2-1.333-0.191-1.32-9.2 1.333 0.191 1.32zM12.474 11.302l4.115-8.337-1.196-0.59-4.115 8.337 1.196 0.59zM15.393 2.964l4.115 8.337 1.196-0.59-4.115-8.337-1.196 0.59zM20.010 11.666l9.2 1.333 0.191-1.32-9.2-1.333-0.191 1.32zM28.84 11.862l-6.667 6.489 0.93 0.955 6.667-6.489-0.93-0.955zM21.982 18.942l1.572 9.164 1.314-0.225-1.572-9.164-1.314 0.225zM24.521 27.403l-8.211-4.327-0.622 1.18 8.211 4.327 0.622-1.18z"></path>
</symbol>
<symbol id="icon-trash" viewBox="0 0 32 32">
<path d="M5.333 8c-0.736 0-1.333 0.597-1.333 1.333s0.597 1.333 1.333 1.333v-2.667zM26.667 10.667c0.736 0 1.333-0.597 1.333-1.333s-0.597-1.333-1.333-1.333v2.667zM14.667 14.667c0-0.736-0.597-1.333-1.333-1.333s-1.333 0.597-1.333 1.333h2.667zM12 22.667c0 0.736 0.597 1.333 1.333 1.333s1.333-0.597 1.333-1.333h-2.667zM20 14.667c0-0.736-0.597-1.333-1.333-1.333s-1.333 0.597-1.333 1.333h2.667zM17.333 22.667c0 0.736 0.597 1.333 1.333 1.333s1.333-0.597 1.333-1.333h-2.667zM7.995 9.223c-0.061-0.734-0.706-1.279-1.439-1.218s-1.279 0.706-1.218 1.439l2.657-0.221zM8 25.333h1.333c0-0.037-0.002-0.074-0.005-0.111l-1.329 0.111zM24 25.333l-1.329-0.111c-0.003 0.037-0.005 0.074-0.005 0.111h1.333zM26.662 9.444c0.061-0.734-0.484-1.378-1.218-1.439s-1.378 0.484-1.439 1.218l2.657 0.221zM10.667 9.333c0 0.736 0.597 1.333 1.333 1.333s1.333-0.597 1.333-1.333h-2.667zM13.333 4v0zM18.667 4v0zM18.667 9.333c0 0.736 0.597 1.333 1.333 1.333s1.333-0.597 1.333-1.333h-2.667zM5.333 10.667h21.333v-2.667h-21.333v2.667zM12 14.667v8h2.667v-8h-2.667zM17.333 14.667v8h2.667v-8h-2.667zM5.338 9.444l1.333 16 2.657-0.221-1.333-16-2.657 0.221zM6.667 25.333c0 1.061 0.421 2.078 1.172 2.828l1.886-1.886c-0.25-0.25-0.391-0.589-0.391-0.943h-2.667zM7.838 28.162c0.75 0.75 1.768 1.172 2.828 1.172v-2.667c-0.354 0-0.693-0.141-0.943-0.391l-1.886 1.886zM10.667 29.333h10.667v-2.667h-10.667v2.667zM21.333 29.333c1.061 0 2.078-0.421 2.828-1.172l-1.886-1.886c-0.25 0.25-0.589 0.391-0.943 0.391v2.667zM24.162 28.162c0.75-0.75 1.172-1.767 1.172-2.828h-2.667c0 0.354-0.141 0.693-0.391 0.943l1.886 1.886zM25.329 25.444l1.333-16-2.657-0.221-1.333 16 2.657 0.221zM13.333 9.333v-4h-2.667v4h2.667zM13.333 5.333v0l-1.886-1.886c-0.5 0.5-0.781 1.178-0.781 1.886h2.667zM13.333 5.333v0-2.667c-0.707 0-1.386 0.281-1.886 0.781l1.886 1.886zM13.333 5.333h5.333v-2.667h-5.333v2.667zM18.667 5.333v0l1.886-1.886c-0.5-0.5-1.178-0.781-1.886-0.781v2.667zM18.667 5.333v0h2.667c0-0.707-0.281-1.386-0.781-1.886l-1.886 1.886zM18.667 5.333v4h2.667v-4h-2.667z"></path>
</symbol>
<symbol id="icon-upload" viewBox="0 0 32 32">
<path d="M6.667 22.667c0-0.736-0.597-1.333-1.333-1.333s-1.333 0.597-1.333 1.333h2.667zM5.333 25.333v0zM28 22.667c0-0.736-0.597-1.333-1.333-1.333s-1.333 0.597-1.333 1.333h2.667zM8.391 11.057c-0.521 0.521-0.521 1.365 0 1.886s1.365 0.521 1.886 0l-1.886-1.886zM16 5.333l0.943-0.943c-0.521-0.521-1.365-0.521-1.886 0l0.943 0.943zM21.724 12.943c0.521 0.521 1.365 0.521 1.886 0s0.521-1.365 0-1.886l-1.886 1.886zM14.667 21.333c0 0.736 0.597 1.333 1.333 1.333s1.333-0.597 1.333-1.333h-2.667zM4 22.667v2.667h2.667v-2.667h-2.667zM4 25.333c0 1.061 0.421 2.078 1.172 2.828l1.886-1.886c-0.25-0.25-0.391-0.589-0.391-0.943h-2.667zM5.172 28.162c0.75 0.75 1.768 1.172 2.828 1.172v-2.667c-0.354 0-0.693-0.141-0.943-0.391l-1.886 1.886zM8 29.333h16v-2.667h-16v2.667zM24 29.333c1.061 0 2.078-0.421 2.828-1.172l-1.886-1.886c-0.25 0.25-0.589 0.391-0.943 0.391v2.667zM26.828 28.162c0.75-0.75 1.172-1.767 1.172-2.828h-2.667c0 0.354-0.141 0.693-0.391 0.943l1.886 1.886zM28 25.333v-2.667h-2.667v2.667h2.667zM10.276 12.943l6.667-6.667-1.886-1.886-6.667 6.667 1.886 1.886zM15.057 6.276l6.667 6.667 1.886-1.886-6.667-6.667-1.886 1.886zM14.667 5.333v16h2.667v-16h-2.667z"></path>
</symbol>
<symbol id="icon-user" viewBox="0 0 32 32">
<path d="M6.667 28c0 0.736 0.597 1.333 1.333 1.333s1.333-0.597 1.333-1.333h-2.667zM13.333 20v0zM18.667 20v0zM22.667 28c0 0.736 0.597 1.333 1.333 1.333s1.333-0.597 1.333-1.333h-2.667zM20 9.333c0 2.209-1.791 4-4 4v2.667c3.682 0 6.667-2.985 6.667-6.667h-2.667zM16 13.333c-2.209 0-4-1.791-4-4h-2.667c0 3.682 2.985 6.667 6.667 6.667v-2.667zM12 9.333c0-2.209 1.791-4 4-4v-2.667c-3.682 0-6.667 2.985-6.667 6.667h2.667zM16 5.333c2.209 0 4 1.791 4 4h2.667c0-3.682-2.985-6.667-6.667-6.667v2.667zM9.333 28v-2.667h-2.667v2.667h2.667zM9.333 25.333c0-1.061 0.421-2.078 1.172-2.828l-1.886-1.886c-1.25 1.25-1.953 2.946-1.953 4.714h2.667zM10.505 22.505c0.75-0.75 1.768-1.172 2.828-1.172v-2.667c-1.768 0-3.464 0.702-4.714 1.953l1.886 1.886zM13.333 21.333h5.333v-2.667h-5.333v2.667zM18.667 21.333c1.061 0 2.078 0.421 2.828 1.172l1.886-1.886c-1.25-1.25-2.946-1.953-4.714-1.953v2.667zM21.495 22.505c0.75 0.75 1.172 1.768 1.172 2.828h2.667c0-1.768-0.702-3.464-1.953-4.714l-1.886 1.886zM22.667 25.333v2.667h2.667v-2.667h-2.667z"></path>
</symbol>
<symbol id="icon-zoom-in" viewBox="0 0 32 32">
<path d="M9.333 12c-0.736 0-1.333 0.597-1.333 1.333s0.597 1.333 1.333 1.333v-2.667zM17.333 14.667c0.736 0 1.333-0.597 1.333-1.333s-0.597-1.333-1.333-1.333v2.667zM14.667 9.333c0-0.736-0.597-1.333-1.333-1.333s-1.333 0.597-1.333 1.333h2.667zM12 17.333c0 0.736 0.597 1.333 1.333 1.333s1.333-0.597 1.333-1.333h-2.667zM27.057 28.943c0.521 0.521 1.365 0.521 1.886 0s0.521-1.365 0-1.886l-1.886 1.886zM20.943 19.057c-0.521-0.521-1.365-0.521-1.886 0s-0.521 1.365 0 1.886l1.886-1.886zM21.333 13.333c0 4.418-3.582 8-8 8v2.667c5.891 0 10.667-4.776 10.667-10.667h-2.667zM13.333 21.333c-4.418 0-8-3.582-8-8h-2.667c0 5.891 4.776 10.667 10.667 10.667v-2.667zM5.333 13.333c0-4.418 3.582-8 8-8v-2.667c-5.891 0-10.667 4.776-10.667 10.667h2.667zM13.333 5.333c4.418 0 8 3.582 8 8h2.667c0-5.891-4.776-10.667-10.667-10.667v2.667zM9.333 14.667h8v-2.667h-8v2.667zM12 9.333v8h2.667v-8h-2.667zM28.943 27.057l-8-8-1.886 1.886 8 8 1.886-1.886z"></path>
</symbol>
<symbol id="icon-zoom-out" viewBox="0 0 32 32">
<path d="M9.333 12c-0.736 0-1.333 0.597-1.333 1.333s0.597 1.333 1.333 1.333v-2.667zM17.333 14.667c0.736 0 1.333-0.597 1.333-1.333s-0.597-1.333-1.333-1.333v2.667zM27.057 28.943c0.521 0.521 1.365 0.521 1.886 0s0.521-1.365 0-1.886l-1.886 1.886zM20.943 19.057c-0.521-0.521-1.365-0.521-1.886 0s-0.521 1.365 0 1.886l1.886-1.886zM21.333 13.333c0 4.418-3.582 8-8 8v2.667c5.891 0 10.667-4.776 10.667-10.667h-2.667zM13.333 21.333c-4.418 0-8-3.582-8-8h-2.667c0 5.891 4.776 10.667 10.667 10.667v-2.667zM5.333 13.333c0-4.418 3.582-8 8-8v-2.667c-5.891 0-10.667 4.776-10.667 10.667h2.667zM13.333 5.333c4.418 0 8 3.582 8 8h2.667c0-5.891-4.776-10.667-10.667-10.667v2.667zM9.333 14.667h8v-2.667h-8v2.667zM28.943 27.057l-8-8-1.886 1.886 8 8 1.886-1.886z"></path>
</symbol>
</defs>
</svg>
